<?xml version="1.0" standalone="no"?>
<!DOCTYPE svg PUBLIC "-//W3C//DTD SVG 1.1//EN" "http://www.w3.org/Graphics/SVG/1.1/DTD/svg11.dtd" >
<svg xmlns="http://www.w3.org/2000/svg">
<metadata></metadata>
<defs>
<font id="ChrBoldItalic" horiz-adv-x="1583" >
<font-face units-per-em="2048" ascent="1638" descent="-410" />
<missing-glyph horiz-adv-x="376" />
<glyph unicode="&#xfb01;" horiz-adv-x="1267" d="M-352 -238q0 55 39 94.5t100 39.5q57 0 92 -39t35 -93q0 -37 -21.5 -69.5t-52.5 -46.5q29 -16 74 -17q59 0 104 56.5t80 208.5l219 991h-235l16 51h230l20 84q113 459 522 459q147 0 244.5 -57.5t97.5 -151.5q0 -63 -37.5 -106.5t-101 -43.5t-102.5 39t-39 101 q0 80 67 133q-10 16 -49 31.5t-71 15.5q-94 0 -152.5 -66.5t-95.5 -232.5l-45 -205h334l290 14l-219 -729q-18 -55 -18 -86q0 -49 46 -64.5t161 -6.5v-23q-141 -59 -273 -59q-197 0 -196 147q0 39 16 94l201 662h-357l-141 -664q-74 -348 -191.5 -490.5t-330.5 -142.5 q-125 0 -192.5 45.5t-67.5 126.5z" />
<glyph unicode="&#xfb02;" horiz-adv-x="1263" d="M-352 -238q0 55 39 94.5t100 39.5q57 0 92 -39t35 -93q0 -37 -21.5 -69.5t-52.5 -46.5q29 -16 74 -17q59 0 104 56.5t80 208.5l219 991h-235l16 51h230l20 84q113 459 502 459q143 0 233 -58l248 52l19 -7l-361 -1245q-14 -57 -14 -82q0 -51 46 -66.5t165 -8.5v-23 q-141 -59 -277 -59q-197 0 -196 145q0 39 16 98l195 660h-353l-141 -664q-74 -348 -191.5 -490.5t-330.5 -142.5q-125 0 -192.5 45.5t-67.5 126.5zM586 938h352l51 190q-98 29 -98 136q0 78 67 135q-10 16 -41.5 29.5t-62.5 13.5q-80 0 -132 -68.5t-89 -228.5z" />
<glyph unicode="&#xfb03;" horiz-adv-x="1875" d="M-352 -238q0 55 39 94.5t100 39.5q57 0 92 -39t35 -93q0 -37 -21.5 -69.5t-52.5 -46.5q29 -16 74 -17q59 0 104 56.5t80 208.5l219 991h-235l16 51h230l22 84q121 436 500 436q219 0 287 -119q137 142 362 142q147 0 245.5 -57.5t98.5 -151.5q0 -63 -39 -106.5 t-102.5 -43.5t-102 39t-38.5 101q0 80 67 133q-10 16 -48 31.5t-71 15.5q-96 0 -153.5 -66.5t-93.5 -232.5l-48 -205h334l293 14l-221 -729q-18 -55 -18 -86q0 -49 46 -64.5t160 -6.5v-23q-141 -59 -272 -59q-197 0 -197 147q0 39 17 94l200 662h-354l-143 -666 q-74 -346 -190.5 -488.5t-321.5 -142.5q-121 0 -186.5 44t-65.5 122q0 55 38 94t97 39q57 0 92 -38.5t35 -90.5q0 -37 -20.5 -69.5t-49.5 -44.5q29 -14 60 -15q121 0 174 230l227 1026h-377l-141 -664q-74 -348 -191.5 -490.5t-330.5 -142.5q-125 0 -192.5 45.5t-67.5 126.5 zM586 938h370l21 84q14 53 27 88q-55 4 -89 42t-34 95q0 82 65 133q-27 37 -94 37q-82 0 -134 -67.5t-89 -227.5z" />
<glyph unicode="&#xfb04;" horiz-adv-x="1892" d="M-352 -238q0 55 39 94.5t100 39.5q57 0 92 -39t35 -93q0 -37 -21.5 -69.5t-52.5 -46.5q29 -16 74 -17q59 0 104 56.5t80 208.5l219 991h-235l16 51h230l22 84q121 436 500 436q215 0 287 -117q131 139 342 140q143 0 233 -58l248 52l18 -7l-360 -1245q-14 -57 -14 -82 q0 -51 46 -66.5t165 -8.5v-23q-141 -59 -277 -59q-197 0 -197 145q0 39 17 98l194 660h-350l-143 -666q-74 -346 -190.5 -488.5t-321.5 -142.5q-121 0 -186.5 44t-65.5 122q0 55 38 94t97 39q57 0 92 -38.5t35 -90.5q0 -37 -20.5 -69.5t-49.5 -44.5q29 -14 60 -15 q121 0 174 230l227 1026h-377l-141 -664q-74 -348 -191.5 -490.5t-330.5 -142.5q-125 0 -192.5 45.5t-67.5 126.5zM586 938h370l21 84q14 53 27 88q-55 4 -89 42t-34 95q0 82 65 133q-27 37 -94 37q-82 0 -134 -67.5t-89 -227.5zM1214 938h353l51 190q-96 31 -96 136 q0 78 65 135q-10 16 -42 29.5t-62 13.5q-80 0 -132.5 -68.5t-88.5 -228.5z" />
<glyph horiz-adv-x="0" />
<glyph horiz-adv-x="2048" />
<glyph unicode=" "  horiz-adv-x="376" />
<glyph unicode="&#x09;" horiz-adv-x="376" />
<glyph unicode="&#xa0;" horiz-adv-x="376" />
<glyph unicode="!" horiz-adv-x="581" d="M37 125q0 66 48 114t120 48q70 0 116 -46t46 -114q0 -66 -48.5 -114t-118 -48t-116.5 46t-47 114zM264 410q27 168 56.5 505.5t50.5 415.5q18 74 61 114t100 40q66 0 104 -41t38 -113q0 -70 -57.5 -207t-160 -353t-159.5 -368z" />
<glyph unicode="&#x22;" horiz-adv-x="956" d="M190 850l103 252q84 209 134 277.5t118 68.5q47 0 77.5 -35t30.5 -72q0 -55 -43 -115.5t-176 -183.5l-223 -204zM602 850l103 252q84 209 134 277.5t117 68.5q47 0 78 -35t31 -72q0 -55 -43 -115.5t-176 -183.5l-223 -204z" />
<glyph unicode="#" horiz-adv-x="1439" d="M104 375l2 43h328l160 516h-342l2 43h352l144 463h51l-144 -463h430l144 463h51l-143 -463h317l-2 -43h-328l-159 -516h344l-2 -43h-357l-141 -463h-51l141 463h-430l-141 -463h-51l141 463h-316zM485 418h430l160 516h-430z" />
<glyph unicode="$" horiz-adv-x="1181" d="M55 340q0 72 45 128t131 56q66 0 105 -43t39 -104q0 -57 -40 -99t-104 -53q23 -41 90.5 -80t147.5 -55l133 477l-24 11q-80 37 -128.5 63.5t-103.5 68.5t-80.5 95t-25.5 121q0 172 150.5 283.5t402.5 111.5q23 0 32 -2l43 156l54 -11l-41 -149q156 -20 254 -97t98 -182 q0 -70 -43 -120t-111 -50q-66 0 -106.5 37t-40.5 94q0 49 28.5 90t79.5 62q-45 86 -176 119l-121 -439l15 -6q53 -27 81.5 -41t77 -42.5t74 -54.5t54 -61.5t41 -78.5t12.5 -92q0 -164 -147.5 -289t-385.5 -125h-57l-49 -178l-53 12l47 172q-184 20 -291 99t-107 196z M487 1073q0 -72 51.5 -121t157.5 -100l119 426q-14 2 -45 2q-129 0 -205 -56.5t-78 -150.5zM518 82q16 -2 47 -2q133 0 207 64.5t74 170.5q0 76 -51.5 128.5t-147.5 101.5z" />
<glyph unicode="%" horiz-adv-x="1667" d="M164 858q0 190 153.5 361.5t348.5 171.5q139 0 184 -115q88 -49 207 -49q178 0 391 192h61l-1167 -1472h-98l1110 1337l-6 6q-168 -127 -373 -127q-59 0 -103 8v-14q0 -119 -53 -247t-161.5 -224t-241.5 -96q-119 0 -185.5 71.5t-66.5 196.5zM344 788q0 -143 113 -143 q96 0 183 86t134 204t47 220q0 21 -2 29q-106 33 -192 108q-106 -55 -194.5 -213.5t-88.5 -290.5zM899 238q0 193 153.5 363.5t348.5 170.5q100 0 153.5 -61.5t53.5 -171.5q0 -119 -53.5 -247t-163 -224.5t-242.5 -96.5q-117 0 -183.5 72t-66.5 195zM1079 168 q0 -68 30 -105.5t83 -37.5q96 0 183 86t134 203.5t47 222.5q0 160 -114 159q-123 0 -243 -183t-120 -345z" />
<glyph unicode="&#x26;" horiz-adv-x="1466" d="M10 260q0 160 124 278.5t347 170.5q-90 117 -90 266q0 162 130 280.5t296 118.5q164 0 256 -77.5t92 -192.5q0 -104 -108.5 -198.5t-294.5 -151.5q156 -183 201 -328q180 328 358 328q76 0 121 -44t45 -116q0 -61 -43 -108.5t-107 -47.5q-59 0 -99 37t-40 92q0 18 6 37 l-6 4q-94 -31 -217 -215q59 -172 116.5 -224t143.5 -52q57 0 139 57l17 -14q-147 -195 -318 -195q-238 0 -303 221q-180 -221 -428 -221q-152 0 -245 83t-93 212zM291 336q0 -109 60.5 -171.5t162.5 -62.5q125 0 250 117q-57 203 -258 461q-215 -135 -215 -344zM625 1077 q0 -84 23 -144.5t89 -146.5q113 68 167 173.5t54 224.5q0 78 -37.5 118.5t-99.5 40.5q-80 0 -138 -72.5t-58 -193.5z" />
<glyph unicode="'" horiz-adv-x="544" d="M190 850l103 252q84 209 134 277.5t118 68.5q47 0 77.5 -35t30.5 -72q0 -55 -43 -115.5t-176 -183.5l-223 -204z" />
<glyph unicode="(" horiz-adv-x="784" d="M150 457q0 215 93 411.5t240.5 335.5t318.5 232.5t339 128.5l4 -25q-178 -61 -323.5 -196.5t-234.5 -307.5t-136.5 -357t-47.5 -362q0 -219 58.5 -364.5t195.5 -276.5l-10 -16q-231 119 -364 319.5t-133 477.5z" />
<glyph unicode=")" horiz-adv-x="784" d="M-285 -311q178 61 323.5 196t234.5 307.5t136.5 357.5t47.5 361q0 219 -57.5 364.5t-194.5 276.5l10 17q231 -119 364.5 -319.5t133.5 -477.5q0 -172 -61.5 -335t-163 -288.5t-231.5 -227t-266.5 -166t-269.5 -91.5z" />
<glyph unicode="*" horiz-adv-x="866" d="M278.5 1251.5q-8.5 34.5 12.5 65.5q18 33 51 41t72 -17q47 -31 170 -196l20 8q0 2 -10 72.5t-14.5 120t0.5 67.5q25 88 106 72q37 -8 55.5 -38t10.5 -73q-6 -33 -140 -227l15 -12q203 100 239 104q45 2 71 -19.5t30 -60.5q6 -84 -84 -94q-25 -2 -254 57l-11 -16 q4 -6 38 -40t57.5 -58.5t48 -55t31.5 -45.5q33 -88 -45 -121q-80 -33 -117 54q-12 29 -23 262l-20 4q-104 -193 -135 -221q-70 -63 -125 4q-57 63 12 127q16 12 60 31.5t112 44.5l68 24v19q-2 0 -73 12t-118 23.5t-63 21.5q-39 25 -47.5 59.5z" />
<glyph unicode="+" horiz-adv-x="1118" d="M158 643l12 45h434l115 432h53l-115 -432h430l-12 -45h-430l-117 -438h-53l117 438h-434z" />
<glyph unicode="," horiz-adv-x="526" d="M-141 -283q266 121 315 252l-6 8q-63 -4 -105.5 38t-42.5 110t47.5 115t112.5 47q74 0 120 -52.5t46 -128.5q0 -133 -119.5 -240t-359.5 -173z" />
<glyph unicode="-" horiz-adv-x="749" d="M117 489l22 84h525l-23 -84h-524z" />
<glyph unicode="." horiz-adv-x="526" d="M20 125q0 66 48.5 114t118 48t116.5 -46t47 -114q0 -66 -48 -114t-117.5 -48t-117 46t-47.5 114z" />
<glyph unicode="/" horiz-adv-x="935" d="M-244 -440l697 983l694 985h63l-696 -985l-694 -983h-64z" />
<glyph unicode="0" horiz-adv-x="1304" d="M106 502q0 147 52.5 301.5t144.5 287t237.5 216.5t313.5 84q217 0 343 -141.5t126 -389.5q0 -147 -52 -302t-144.5 -287t-238 -216t-315.5 -84q-215 0 -341 141.5t-126 389.5zM379 319q0 -305 184 -305q111 0 207 113t155.5 277.5t92.5 335.5t33 302q0 305 -187 306 q-111 0 -207 -113t-154.5 -277.5t-91 -335t-32.5 -303.5z" />
<glyph unicode="1" horiz-adv-x="876" d="M-51 0l6 27q156 8 208 29.5t68 78.5l256 977q18 68 16.5 111t-51 65.5t-165.5 24.5l6 26l547 41l-332 -1245q-16 -59 29 -79.5t206 -28.5l-6 -27h-788z" />
<glyph unicode="2" horiz-adv-x="1155" d="M-25 0l35 176l461 297q242 154 347.5 291t105.5 326q0 262 -217 262q-76 0 -147 -37t-111 -101q72 -18 111.5 -64t39.5 -112q0 -72 -48 -124t-124 -52q-78 0 -123 49.5t-45 132.5q0 147 140.5 247t351.5 100q223 0 337.5 -98.5t114.5 -243.5q0 -158 -162.5 -295.5 t-617.5 -380.5l-240 -137v-9h572q98 0 152.5 39t140.5 168l26 -2l-121 -432h-979z" />
<glyph unicode="3" horiz-adv-x="1161" d="M41 268q0 88 51 144.5t129 56.5q72 0 117 -49t45 -117q0 -63 -40 -110.5t-110 -67.5q27 -47 91.5 -82t144.5 -35q125 0 207 82q113 113 112 320q0 262 -342 270l13 45q264 0 379 111q104 96 104 276q0 240 -225 240q-74 0 -137.5 -34t-92.5 -77q55 -14 91 -56t36 -102 q0 -68 -45 -116.5t-118 -48.5q-70 0 -118 47t-48 116q0 139 133 224.5t344 85.5q219 0 340 -87t121 -231q0 -147 -149.5 -249.5t-459.5 -123.5l-2 -8q231 -14 348 -103t117 -231q0 -178 -166 -282.5t-430 -104.5q-215 0 -327.5 86t-112.5 211z" />
<glyph unicode="4" horiz-adv-x="1230" d="M25 397l28 95l920 872h194l-206 -793h256l-35 -174h-267l-71 -278q-14 -51 18.5 -70.5t151.5 -21.5l-6 -27h-670l6 27q106 2 151.5 24.5t59.5 67.5l74 278h-604zM207 571h467l157 588h-8z" />
<glyph unicode="5" horiz-adv-x="1159" d="M47 272q0 78 51.5 135.5t130.5 57.5q74 0 116 -47t42 -111q0 -135 -133 -182q49 -117 233 -117q92 0 160 57.5t100.5 146.5t46 170t13.5 155q0 254 -219 254q-158 0 -307 -125l-43 14l190 682h836l-90 -248h-766l-119 -401q178 129 356 129q207 0 327 -93.5t120 -263.5 q0 -219 -176.5 -366.5t-448.5 -147.5q-174 0 -297 86t-123 215z" />
<glyph unicode="6" horiz-adv-x="1187" d="M104 444q0 195 79 364t227.5 298t376 207t507.5 86l-2 -29q-373 -63 -575.5 -229t-290.5 -412l8 -6q82 102 168 151.5t205 49.5q160 0 249 -105.5t89 -259.5q0 -225 -171 -406.5t-437 -181.5q-205 0 -319 130t-114 343zM356 276q1 -266 179 -266q94 0 176 111.5 t124 262.5t42 286q0 203 -138 202q-102 0 -191 -90t-140.5 -228t-51.5 -278z" />
<glyph unicode="7" horiz-adv-x="1083" d="M61 -2l1020 1118h-553q-98 0 -151 -44t-144 -202l-24 2l121 490h954l6 -25l-538 -745l-398 -612h-293v18z" />
<glyph unicode="8" horiz-adv-x="1159" d="M74 287q0 266 391 379q-199 133 -199 309q0 170 147.5 293t356.5 123q205 0 321.5 -87t116.5 -221q0 -109 -95 -198.5t-277 -141.5q117 -76 181 -157.5t64 -202.5q0 -186 -158.5 -299t-381.5 -113q-225 0 -346 91.5t-121 224.5zM311 305q0 -125 65.5 -208t178.5 -83 q115 0 189.5 72t74.5 205q0 104 -66.5 171.5t-207.5 153.5l-43 25q-90 -55 -140.5 -145t-50.5 -191zM522 1087q0 -92 67.5 -161.5t203.5 -153.5q178 135 178 348q0 106 -55.5 168t-153.5 62q-104 0 -172 -72t-68 -191z" />
<glyph unicode="9" horiz-adv-x="1175" d="M31 -35l2 29q698 125 854 616l-8 8q-78 -94 -153 -136t-187 -42q-172 0 -265.5 103.5t-93.5 261.5q0 225 172.5 405.5t438.5 180.5q203 0 316.5 -131.5t113.5 -344.5q0 -195 -78 -362.5t-223.5 -296.5t-375 -206t-513.5 -85zM449 715q0 -225 161 -226q145 0 248 184.5 t103 401.5q-1 277 -173 277q-92 0 -172.5 -111t-123.5 -256t-43 -270z" />
<glyph unicode=":" horiz-adv-x="555" d="M35 125q0 66 48 114t117.5 48t117 -46t47.5 -114q0 -66 -48.5 -114t-118 -48t-116.5 46t-47 114zM172 688q0 68 48 115t120 47q70 0 116 -46t46 -114q0 -66 -48 -114t-118 -48t-117 47.5t-47 112.5z" />
<glyph unicode=";" horiz-adv-x="555" d="M-127 -283q266 121 315 252l-6 8q-63 -4 -105 38t-42 110t46 115t114 47q74 0 119.5 -52.5t45.5 -128.5q0 -133 -119.5 -240t-359.5 -173zM172 688q0 68 48 115t120 47q70 0 116 -46t46 -114q0 -66 -48 -114t-118 -48t-117 47.5t-47 112.5z" />
<glyph unicode="&#x3c;" horiz-adv-x="1126" d="M219 645l12 47l912 438l-19 -65l-841 -401l645 -402l-17 -53z" />
<glyph unicode="=" horiz-adv-x="1112" d="M102 442l11 45h897l-11 -45h-897zM205 848l10 45h897l-10 -45h-897z" />
<glyph unicode="&#x3e;" horiz-adv-x="1126" d="M86 209l18 65l842 402l-645 401l16 53l693 -436l-13 -47z" />
<glyph unicode="?" horiz-adv-x="1030" d="M160 125q0 66 48 114t117.5 48t116.5 -46t47 -114q0 -66 -48 -114t-117.5 -48t-116.5 46t-47 114zM207 1165q-2 131 125 224.5t311 93.5q221 0 353 -105.5t132 -269.5q0 -178 -166.5 -289.5t-465.5 -152.5l-80 -263l-54 13l87 278q209 63 307 210t98 323q0 215 -221 215 q-82 0 -150.5 -40t-95.5 -89q68 -16 101.5 -59.5t33.5 -98.5q2 -61 -41 -107.5t-110 -46.5q-72 0 -118 46.5t-46 117.5z" />
<glyph unicode="@" horiz-adv-x="1861" d="M156 444q0 410 272 683.5t676 273.5q295 0 489.5 -178.5t194.5 -452.5q0 -293 -160 -472t-373 -179q-125 0 -180 40t-65 117l-6 5q-135 -145 -265 -146q-109 0 -170 72t-61 190q0 221 160.5 403.5t341.5 182.5q156 0 202 -115h9l36 97l230 16l-127 -291l-107 -293 q-35 -92 -34 -141q0 -86 88 -86q162 0 299 173t137 425q0 256 -181.5 425t-461.5 169q-256 0 -464 -125t-321.5 -335t-113.5 -458q0 -309 197.5 -506.5t531.5 -197.5q283 0 530 170l21 -29q-256 -180 -555 -180q-346 0 -558 202.5t-212 540.5zM739 369q0 -76 30 -104.5 t89 -28.5q63 0 146 96l186 479q-25 115 -127 115q-113 0 -218.5 -186.5t-105.5 -370.5z" />
<glyph unicode="A" horiz-adv-x="1449" d="M-143 0l6 29q113 16 196.5 86.5t176.5 216.5l702 1122h147l158 -1257q10 -94 43 -124t150 -44l-6 -29h-715l6 29q145 7 188 37q35 25 35 83q0 14 -2 29l-43 369h-473l-145 -240q-63 -106 -63 -168q0 -17 4 -31q22 -64 151 -79l-6 -29h-510zM453 588h442l-68 598h-12z" />
<glyph unicode="B" horiz-adv-x="1456" d="M-63 0l6 29q135 4 179 21.5t58 72.5l318 1184q3 11 3 21q0 30 -26 46q-35 22 -164 27l6 26h613q279 0 406.5 -83.5t127.5 -215.5q0 -143 -135 -251.5t-397 -131.5l-2 -10q422 -35 422 -317q0 -174 -173 -296t-524 -122h-718zM457 41h213q106 0 183 42t116 111.5t56 144.5 t17 157q0 117 -65.5 172t-212.5 55h-125zM649 762h166q104 0 178 42t111 109.5t52 132t15 130.5q0 111 -61 160.5t-190 49.5h-103z" />
<glyph unicode="C" horiz-adv-x="1462" d="M125 578q0 160 63.5 316.5t176 283.5t286.5 205.5t375 78.5q195 0 365 -100l116 94h33l-133 -518h-33q-78 287 -151.5 385t-208.5 98q-143 0 -279.5 -144t-216.5 -355t-80 -410q0 -225 97.5 -345t287.5 -120q137 0 275.5 86t259.5 250l35 -23q-123 -176 -299 -285.5 t-381 -109.5q-260 0 -424 166t-164 447z" />
<glyph unicode="D" horiz-adv-x="1591" d="M-63 0l6 29q135 4 179 21.5t58 72.5l318 1184q3 11 3 21q0 30 -26 46q-35 22 -164 27l6 26h615q303 0 483 -155.5t180 -423.5q0 -160 -65.5 -317.5t-186.5 -278.5q-248 -252 -628 -252h-778zM457 41h225q184 0 324 139q139 141 211.5 383t72.5 441q0 184 -80 283t-272 99 h-121z" />
<glyph unicode="E" horiz-adv-x="1452" d="M-63 0l6 29q135 4 179 21.5t58 72.5l318 1184q3 11 3 21q0 30 -26 46q-35 22 -164 27l6 26h1219l-119 -477h-33q-18 98 -33.5 156.5t-41 119t-59 90.5t-86 49t-124.5 19h-225l-162 -610h109q115 0 174 46t176 208h31l-150 -573h-30q-37 184 -62 223q-47 53 -149 55h-111 l-184 -690h266q104 0 188 28.5t159 95t132.5 141.5t136.5 200h35l-141 -508h-1296z" />
<glyph unicode="F" horiz-adv-x="1357" d="M-63 0l6 29q135 4 179 21.5t58 72.5l318 1184q3 11 3 21q0 30 -26 46q-35 22 -164 27l6 26h1217l-125 -495h-33q-47 258 -109.5 355t-228.5 97h-223l-172 -643h113q115 0 175 45t175 205h31l-150 -573h-31q-37 186 -59 225q-47 55 -149 57h-115l-154 -577q-4 -15 -4 -27 q0 -32 27 -44q37 -16 180 -23l-6 -29h-739z" />
<glyph unicode="G" horiz-adv-x="1550" d="M125 578q0 123 40 248.5t117.5 239.5t184 203t252 141t307.5 52q221 0 389 -94l109 88h32l-131 -500h-32q-94 283 -162 374t-197 91q-166 0 -307 -156.5t-215 -379.5t-74 -445q0 -188 89 -311t243 -123q113 0 211 57l127 480q3 12 3 22q0 30 -27 45q-35 21 -169 27l7 27 h659l-6 -27q-100 -6 -133 -26.5t-45 -67.5l-129 -461q-260 -117 -520 -117q-266 0 -444.5 168t-178.5 445z" />
<glyph unicode="H" horiz-adv-x="1726" d="M-63 0l6 29q135 4 179 21.5t58 72.5l318 1184q3 11 3 21q0 30 -26 46q-35 22 -164 27l6 26h707l-6 -26q-121 -8 -165 -28.5t-56 -67.5l-148 -543h580l145 545q3 12 3 22q1 27 -23 43q-32 20 -156 29l6 26h715l-6 -26q-129 -6 -178 -27.5t-62 -66.5l-315 -1184 q-4 -16 -4 -29q0 -32 24 -44q34 -18 166 -21l-6 -29h-709l7 29q121 6 164.5 23.5t58.5 72.5l160 596h-580l-160 -598q-4 -15 -4 -26q0 -31 27 -45q37 -18 153 -23l-6 -29h-712z" />
<glyph unicode="I" horiz-adv-x="894" d="M-49 0l6 29q137 4 184 21.5t62 72.5l317 1184q3 11 3 21q-1 30 -29 46q-38 20 -170 27l6 26h741l-6 -26q-131 -6 -182.5 -27.5t-63.5 -64.5l-317 -1186q-4 -15 -4 -28q0 -33 26 -45q36 -18 176 -21l-6 -29h-743z" />
<glyph unicode="J" horiz-adv-x="1222" d="M8 248q0 84 56.5 152.5t144.5 68.5q70 0 109.5 -42t39.5 -108q0 -76 -50 -130t-136 -66q18 -51 73.5 -83t121.5 -32q104 0 171.5 90t129.5 314l241 895q3 10 3 19q0 31 -32 48q-40 21 -178 27l7 26h749l-6 -26q-131 -6 -181 -27.5t-63 -64.5l-227 -846 q-70 -254 -206 -376t-378 -122q-180 0 -284.5 81t-104.5 202z" />
<glyph unicode="K" horiz-adv-x="1597" d="M-63 0l6 29q135 4 179 21.5t58 72.5l318 1184q3 11 3 21q0 30 -26 46q-35 22 -164 27l6 26h707l-6 -26q-121 -8 -165 -28.5t-56 -67.5l-185 -684l609 520q106 92 106 161q1 7 -1 14q-12 73 -142 85l6 26h584l-7 -26q-131 -25 -231 -81t-260 -190l-272 -229l303 -700 q45 -104 79.5 -132t135.5 -40l-6 -29h-691l6 29q131 9 159 39q12 13 12 37q0 31 -21 81l-211 516l-176 -147l-115 -432q-4 -15 -4 -27q0 -32 25 -44q35 -18 141 -23l-6 -29h-698z" />
<glyph unicode="L" horiz-adv-x="1363" d="M-63 0l6 29q135 4 179 21.5t58 72.5l318 1184q3 11 3 21q0 30 -26 46q-35 22 -164 27l6 26h715l-6 -26q-125 -6 -171 -27.5t-58 -68.5l-340 -1262h207q92 0 160.5 22.5t143 90t136 143.5t172.5 229h35l-154 -528h-1220z" />
<glyph unicode="M" horiz-adv-x="2019" d="M-78 0l6 29q141 10 210 68.5t106 199.5l250 940q5 21 5 40q0 45 -30 74q-43 42 -170 50l6 26h563l140 -1048h8l663 1048h533l-6 -26q-127 -6 -176.5 -27.5t-61.5 -66.5l-317 -1184q-4 -16 -4 -29q1 -32 25 -44q34 -18 167 -21l-6 -29h-707l7 29q121 6 164.5 23.5 t58.5 72.5l313 1171h-10l-823 -1300h-70l-182 1300h-19l-264 -997q-16 -60 -16 -106q0 -55 23 -89q42 -62 188 -75l-7 -29h-567z" />
<glyph unicode="N" horiz-adv-x="1656" d="M-76 0l6 29q141 16 211 80.5t107 203.5l235 889q6 23 6 44q-1 48 -31 90q-44 60 -159 65l6 26h447l555 -1091h2l204 778q20 74 20 127q0 55 -22 87q-43 62 -192 73l6 26h563l-6 -26q-139 -16 -206.5 -81t-104.5 -206l-305 -1137h-107l-618 1217h-2l-236 -879 q-19 -75 -19 -128q0 -56 21 -87q41 -61 191 -71l-7 -29h-565z" />
<glyph unicode="O" d="M125 561q0 156 61.5 313.5t170 289.5t274.5 215t358 83q260 0 430 -159.5t170 -434.5q0 -156 -61.5 -314.5t-170 -290.5t-274 -215t-358.5 -83q-262 0 -431 160t-169 436zM422 385q0 -182 66.5 -280.5t197.5 -98.5q129 0 245 101.5t192.5 256t121.5 335t45 343.5 q0 379 -262 379q-170 0 -313.5 -171t-218 -407.5t-74.5 -457.5z" />
<glyph unicode="P" horiz-adv-x="1380" d="M-63 0l6 29q135 4 179 21.5t58 72.5l318 1184q3 11 3 21q0 30 -26 46q-35 22 -164 27l6 26h611q287 0 412.5 -97t125.5 -245q0 -66 -22.5 -130t-74.5 -126.5t-130 -109.5t-199.5 -76t-271.5 -29h-158l-131 -491q-4 -15 -4 -26q0 -31 27 -45q37 -18 153 -23l-6 -29h-712z M623 655h118q96 0 172 34t121 86t75 122t41 134.5t11 127.5q0 123 -58.5 175t-178.5 52h-107z" />
<glyph unicode="Q" d="M125 565q0 154 61.5 311.5t170 288.5t274.5 214t358 83q260 0 430 -157.5t170 -434.5q0 -154 -61.5 -311.5t-170 -288.5t-274 -214t-358.5 -83h-14q66 -31 129 -96t102 -124.5t88 -104.5t96 -45q35 0 57.5 17.5t22.5 45.5q0 31 -39 75t-39 87q0 57 41 98t98.5 41 t98.5 -44t41 -103q0 -123 -118 -203t-283 -80q-98 0 -176 35t-125.5 85t-87 100t-84 85t-93.5 35q-70 0 -127 -36t-137 -126l-24 25q168 229 387 258q-188 51 -301 197.5t-113 369.5zM422 389q0 -180 66.5 -277.5t197.5 -97.5q170 0 313.5 171t217 407t73.5 455 q0 374 -261 374h-1q-170 0 -313.5 -171t-218 -405.5t-74.5 -455.5z" />
<glyph unicode="R" horiz-adv-x="1499" d="M-63 0l6 29q135 4 179 21.5t58 72.5l318 1184q3 11 3 21q0 30 -26 46q-35 22 -164 27l6 26h637q520 0 521 -301q0 -338 -553 -405l-2 -10q220 -14 298 -91q63 -62 63 -186q0 -29 -3 -61l-12 -133q-5 -44 -4 -78q0 -71 20 -97q30 -38 156 -45l-6 -28q-80 -6 -168 -6 q-150 0 -222 30q-72 28 -88 90q-8 30 -8 69t8 87l31 180q8 48 8 87q0 73 -29 109q-44 56 -186 56h-147l-152 -571q-4 -15 -4 -26q0 -31 27 -45q37 -18 153 -23l-6 -29h-712zM643 733h107q125 0 215 44t133 116t61.5 137.5t18.5 130.5q0 115 -55.5 170t-180.5 55h-125z" />
<glyph unicode="S" horiz-adv-x="1189" d="M-27 -35l150 537h33q74 -268 170 -380t254 -112q131 0 219 72t88 188q0 111 -76 185.5t-229 152.5q-162 84 -243 163t-81 214q0 186 149.5 327.5t380.5 141.5q182 0 355 -84l117 96h32l-121 -489h-34q-82 252 -172.5 346t-216.5 94q-113 0 -187 -67.5t-74 -182.5 q0 -51 20.5 -93t70 -81t86 -61.5t114.5 -63.5q158 -86 241 -173t83 -222q0 -207 -144.5 -353.5t-398.5 -146.5q-248 0 -440 105l-113 -113h-33z" />
<glyph unicode="T" horiz-adv-x="1480" d="M203 926l143 501h1292l-129 -501h-32q-74 295 -126.5 379t-170.5 84h-47l-338 -1266q-5 -16 -5 -28q0 -33 30 -45q40 -18 196 -21l-6 -29h-791l6 29q156 4 206.5 21.5t64.5 72.5l338 1266h-54q-117 0 -225.5 -95.5t-312.5 -367.5h-39z" />
<glyph unicode="U" horiz-adv-x="1652" d="M229 375q0 88 29 196l197 736q3 11 3 21q0 30 -26 46q-35 22 -164 27l6 26h707l-6 -26q-121 -8 -165 -28.5t-56 -67.5l-207 -766q-31 -121 -31 -207q0 -297 315 -297q178 0 298 104.5t184 343.5l172 645q17 60 17 106q0 56 -25 91q-45 64 -191 76l6 26h561l-6 -26 q-141 -16 -203.5 -72.5t-101.5 -198.5l-184 -690q-63 -242 -210 -358.5t-417 -116.5q-242 -1 -373 105q-129 104 -129 299v6z" />
<glyph unicode="V" horiz-adv-x="1462" d="M164 1401l6 26h717l-6 -26q-141 -6 -187 -37q-40 -26 -40 -81q0 -9 1 -19l117 -975h10l508 788q71 113 71 187q-1 22 -7 40q-28 80 -162 97l6 26h545l-6 -26q-111 -14 -192 -81t-179 -220l-733 -1125h-109l-164 1262q-12 86 -46.5 116.5t-149.5 47.5z" />
<glyph unicode="W" horiz-adv-x="2138" d="M182 1401l6 26h664l-6 -26q-120 -7 -154 -37q-31 -27 -30 -87v-15l77 -926h11l432 692l-19 207q-8 90 -39.5 124t-132.5 42l6 26h666l-6 -26q-125 -6 -164 -38q-35 -29 -35 -88v-13l70 -920h10l424 731q69 128 69 201q1 20 -5 36q-24 72 -158 91l6 26h526l-6 -26 q-113 -14 -190.5 -83t-167.5 -222l-652 -1121h-106l-90 975l-598 -975h-109l-112 1260q-10 88 -42 118.5t-145 47.5z" />
<glyph unicode="X" horiz-adv-x="1480" d="M-135 0l6 29q123 14 220 72.5t226 187.5l373 383l-215 571q-31 82 -74 112.5t-153 45.5l6 26h721l-6 -26q-150 -8 -188 -42q-22 -19 -22 -52q0 -25 13 -58l146 -407l317 325q80 87 80 142q1 12 -3 22q-22 58 -141 70l7 26h546l-6 -26q-121 -14 -213 -70.5t-225 -191.5 l-344 -346l219 -609q29 -82 72 -112.5t157 -42.5l-6 -29h-721l7 29q147 9 183 41q21 19 21 53q0 24 -10 55l-151 447l-345 -363q-77 -80 -77 -139q1 -9 3 -19q16 -64 130 -75l-6 -29h-547z" />
<glyph unicode="Y" horiz-adv-x="1417" d="M199 1401l6 26h710l-6 -26q-156 -6 -197 -38q-27 -21 -27 -56q0 -17 7 -37l191 -600l364 456q85 107 85 169q0 8 -2 15q-13 64 -144 91l6 26h514l-6 -26q-111 -18 -194.5 -79t-202.5 -206l-402 -491l-133 -502q-4 -15 -4 -28q0 -32 26 -45q37 -17 175 -21l-7 -29h-741 l6 29q137 4 184.5 21.5t61.5 72.5l135 502l-194 626q-25 82 -60 106.5t-151 43.5z" />
<glyph unicode="Z" horiz-adv-x="1376" d="M-66 35l1262 1351h-297q-143 0 -280.5 -96t-329.5 -346l-41 4l149 479h1149l4 -34l-1255 -1352h360q141 0 276.5 104.5t332.5 362.5l34 -4l-147 -504h-1212z" />
<glyph unicode="[" horiz-adv-x="759" d="M-29 -338l510 1903h615l-13 -41h-368l-488 -1821h369l-10 -41h-615z" />
<glyph unicode="\" horiz-adv-x="935" d="M295 1528h55l164 -985l170 -983h-55l-166 983z" />
<glyph unicode="]" horiz-adv-x="759" d="M-260 -340l12 41h369l487 1821h-368l10 41h614l-510 -1903h-614z" />
<glyph unicode="^" horiz-adv-x="735" d="M172 1059l449 510h30l197 -510h-49l-224 235l-342 -235h-61z" />
<glyph unicode="_" horiz-adv-x="901" d="M-125 0l16 63h910l-17 -63h-909z" />
<glyph unicode="`" horiz-adv-x="487" d="M293 1444q0 39 31.5 69.5t76.5 30.5t72 -38t59 -132l105 -297h-25l-204 197q-61 61 -88 98t-27 72z" />
<glyph unicode="a" horiz-adv-x="1136" d="M53 317q0 262 177.5 454t377.5 192q84 0 128 -34t75 -98l39 105l274 27l-110 -330l-125 -420q-20 -68 -21 -98q0 -43 40 -55q27 -8 84 -9q27 0 61 2v-22q-129 -47 -246 -47q-90 0 -134 32q-42 30 -42 102v7q0 18 2 31l-4 2q-133 -174 -297 -174q-121 0 -200 90t-79 243z M330 301q0 -205 139 -205q82 0 156 115l157 534q-4 63 -37.5 109.5t-80.5 46.5q-84 0 -164 -102.5t-125 -241.5t-45 -256z" />
<glyph unicode="b" horiz-adv-x="1097" d="M25 104l118 418l201 793q3 12 3 23q-1 32 -27 48q-36 22 -146 27v25l485 30l-174 -639l4 -4q143 137 291 138q117 0 190.5 -87t73.5 -241q0 -264 -179 -457.5t-459 -193.5q-219 0 -381 120zM299 115q12 -45 50 -68.5t85 -23.5q129 0 232.5 217t103.5 422q0 192 -140 192 h-1q-72 0 -154 -72z" />
<glyph unicode="c" horiz-adv-x="956" d="M53 371q0 242 164 417t406 175q150 0 234.5 -59.5t84.5 -160.5q0 -57 -40 -102t-101 -45q-66 0 -104 35t-38 96q0 41 28 84t75 63q-43 49 -115 50q-82 0 -157.5 -88t-119.5 -216t-44 -253q0 -285 239 -285q166 0 289 190l29 -18q-152 -270 -437 -270q-176 0 -284.5 107.5 t-108.5 279.5z" />
<glyph unicode="d" horiz-adv-x="1130" d="M53 326q0 256 179.5 446.5t377.5 190.5q86 0 131 -29t74 -86l121 465q3 12 3 23q-1 32 -27 48q-36 22 -146 29v25l485 30l-354 -1251q-20 -66 -20 -96q1 -45 41 -61q27 -10 81 -10q28 0 64 3v-22q-135 -47 -248 -47q-88 0 -132 32.5t-44 112.5v23l-6 2 q-133 -170 -293 -170q-119 0 -203 94t-84 248zM330 301q0 -96 40 -147.5t109 -51.5q86 0 152 103l157 553q-8 59 -40.5 101t-81.5 42q-86 0 -166 -102.5t-125 -240.5t-45 -257z" />
<glyph unicode="e" horiz-adv-x="972" d="M51 360q0 246 177.5 424.5t443.5 178.5q147 0 224 -59.5t77 -155.5q0 -133 -163 -213q-139 -68 -388 -68q-44 0 -90 2q-8 -47 -8 -104q0 -145 53 -214t176 -69q84 0 169 48t144 132l25 -22q-166 -256 -455 -256q-170 0 -277.5 101t-107.5 275zM338 504h17q114 0 194 26 q86 28 127 76.5t57.5 97t16.5 105.5q0 115 -94.5 115t-187.5 -127t-130 -293z" />
<glyph unicode="f" horiz-adv-x="694" d="M-352 -238q0 55 39 94.5t100 39.5q57 0 92 -39t35 -93q0 -37 -21.5 -69.5t-52.5 -46.5q29 -16 74 -17q61 0 106.5 56.5t77.5 208.5l219 991h-235l16 51h230l22 86q55 227 177 342t298 115q133 0 212 -53.5t79 -145.5q0 -68 -37 -108.5t-104 -40.5q-61 0 -100 38.5 t-39 98.5q0 78 65 135q-25 37 -78 37q-63 0 -108 -68.5t-82 -222.5l-47 -213h254l-17 -51h-252l-141 -664q-74 -348 -191.5 -490.5t-330.5 -142.5q-125 0 -192.5 45.5t-67.5 126.5z" />
<glyph unicode="g" horiz-adv-x="1103" d="M-76 -199q0 66 43 112t109 46q61 0 96 -39t35 -96q0 -39 -23.5 -76t-58.5 -53q35 -66 154 -66q104 0 169.5 74t110.5 231l62 205l-7 4q-116 -143 -276 -143q-121 0 -202 89t-81 243q0 254 174 442.5t371 188.5q86 0 132 -32t79 -93l35 98l278 27l-110 -332l-185 -645 q-59 -215 -180 -305.5t-368 -90.5q-174 0 -265.5 63.5t-91.5 147.5zM330 309q0 -194 144 -194h1q84 0 148 88l161 547q-8 59 -43 105t-84 46q-127 0 -227 -201.5t-100 -390.5z" />
<glyph unicode="h" horiz-adv-x="1157" d="M23 0l98 332l248 983q2 11 2 20q0 33 -27 51q-35 22 -145 27v25l483 30l-197 -710l7 -4q192 204 374 204h2q98 0 151.5 -51t53.5 -145q1 -61 -24 -141l-131 -416q-18 -61 -19 -94q0 -41 39 -53q26 -8 80 -7q28 0 65 2v-22q-135 -47 -243 -47q-201 0 -201 137q0 45 18 100 l129 412q20 68 21 115q0 90 -86 90q-106 0 -244 -125l-180 -713h-274z" />
<glyph unicode="i" horiz-adv-x="651" d="M94 131q0 39 17 94l172 570q4 14 4 26q0 31 -29 49q-41 26 -137 31v25l475 26l-221 -729q-18 -66 -19 -86q0 -49 47 -64q31 -10 90 -10q32 0 72 3v-23q-141 -59 -272 -59q-199 0 -199 147zM389 1247q0 82 53.5 140.5t128.5 58.5q51 0 88 -36t37 -95q0 -82 -54 -140.5 t-130 -58.5q-51 0 -87 35t-36 96z" />
<glyph unicode="j" horiz-adv-x="610" d="M-393 -238q0 57 39 95.5t98 38.5q57 0 92 -39t35 -93q0 -82 -68 -116q29 -16 72 -17q57 0 100 60.5t82 222.5l217 883q2 10 2 19q0 35 -30 54q-39 25 -135 31v25l471 26l-240 -936q-55 -219 -162.5 -322.5t-312.5 -103.5q-125 0 -192.5 45.5t-67.5 126.5zM365 1247 q0 82 54 140.5t130 58.5q51 0 88 -36t37 -95q0 -82 -54.5 -140.5t-130.5 -58.5q-51 0 -87.5 35t-36.5 96z" />
<glyph unicode="k" horiz-adv-x="1091" d="M25 0l96 332l248 983q2 11 2 20q0 33 -27 51q-35 22 -145 27v25l483 30l-244 -911h47q53 0 98.5 42t80 101.5t72.5 119t92.5 101.5t121.5 42q74 0 115 -41t41 -101q0 -70 -36 -110.5t-95.5 -40.5t-96 29.5t-36.5 82.5q0 47 28 86q-43 -8 -81.5 -54t-65.5 -97t-67 -100.5 t-83 -61.5v-8h24q157 1 221 -49q69 -54 69 -156q0 -27 -7.5 -103.5t-7.5 -111.5q0 -49 32 -65q29 -15 111 -15h21v-22q-119 -41 -231 -41q-119 0 -159 43t-40 127q0 39 10.5 118.5t10.5 98.5q0 90 -32 122.5t-112 32.5h-53l-133 -526h-272z" />
<glyph unicode="l" horiz-adv-x="620" d="M86 227l211 711l98 377q3 12 3 23q0 32 -26 48q-36 22 -147 27v25l482 30l-361 -1245q-14 -57 -14 -82q0 -51 46 -67q32 -11 98 -10q30 0 67 2v-23q-141 -59 -277 -59q-196 0 -196 144q0 40 16 99z" />
<glyph unicode="m" horiz-adv-x="1726" d="M33 0l98 332l125 469q4 17 4 31q0 28 -16 42q-24 22 -115 27v25l426 26l-59 -194l8 -6q187 206 366 206h2q201 0 205 -188v-4q192 192 357 192h2q98 0 152 -52t54 -146q0 -63 -24 -139l-131 -416q-20 -68 -21 -94q0 -41 40 -53q26 -8 82 -7q29 0 65 2v-22 q-135 -47 -244 -47q-201 0 -201 137q0 45 19 100l129 412q25 78 24 119q0 86 -86 86q-94 0 -217 -105q-2 -16 -14 -71l-189 -662h-266l185 633q20 72 20 121q0 84 -86 84q-102 0 -240 -125l-180 -713h-274z" />
<glyph unicode="n" horiz-adv-x="1167" d="M33 0l98 332l125 469q4 17 4 31q0 28 -16 42q-24 22 -115 27v25l426 26l-59 -194l6 -4q192 204 375 204h2q98 0 151 -51t53 -145q0 -61 -24 -141l-131 -416q-18 -61 -19 -94q0 -41 39 -53q26 -8 81 -7q29 0 67 2v-22q-141 -47 -246 -47q-201 0 -201 137q0 45 19 100 l129 412q23 74 22 115q0 90 -88 90q-106 0 -244 -125l-180 -713h-274z" />
<glyph unicode="o" horiz-adv-x="1075" d="M51 387q0 217 157 396.5t415 179.5q184 0 292.5 -110t108.5 -294q0 -217 -156.5 -396t-414.5 -179q-184 0 -293 109.5t-109 293.5zM301 219q0 -196 137 -196q98 0 179 130t119 288.5t38 285.5q0 197 -137 197q-98 0 -179 -130t-119 -289t-38 -286z" />
<glyph unicode="p" horiz-adv-x="1134" d="M-209 -365q86 2 118 16.5t40 43.5l86 270l221 838q5 18 5 32q0 25 -15 39q-25 21 -117 27v25l426 26l-39 -133l4 -4q141 147 297 148q115 0 191.5 -87.5t76.5 -240.5q0 -262 -176 -455.5t-379 -193.5q-145 0 -202 82l-99 -363q-6 -23 6.5 -36t55.5 -22t129 -12v-24h-629 v24zM346 145q12 -49 51 -76.5t86 -27.5q84 0 162 102.5t122 247t44 273.5q0 190 -135 190q-37 0 -87 -26.5t-81 -63.5z" />
<glyph unicode="q" horiz-adv-x="1110" d="M53 326q0 256 177.5 446.5t375.5 190.5q86 0 132 -32t79 -93l35 98l276 27l-110 -332l-246 -930q-6 -20 -1 -34.5t41 -21.5t118 -10v-24h-627v24q173 7 189 60l137 440l-15 2q-72 -84 -133 -118.5t-145 -34.5q-121 0 -202 93t-81 249zM330 301q0 -96 38 -147.5t107 -51.5 q86 0 152 103l161 547q-8 59 -42.5 104t-83.5 45q-86 0 -165 -102.5t-123 -240.5t-44 -257z" />
<glyph unicode="r" horiz-adv-x="942" d="M33 0l98 332l125 469q4 17 4 31q0 28 -16 42q-24 22 -115 27v25l426 26l-66 -217l5 -4q151 232 319 232q84 0 131 -45.5t47 -116.5q0 -80 -44 -129t-113 -49q-66 0 -106 33.5t-40 97.5q0 61 37 96q-94 -2 -248 -174l-170 -676h-274z" />
<glyph unicode="s" horiz-adv-x="886" d="M8 170q0 57 39 98t98 41q53 0 88 -32.5t35 -81.5q0 -70 -57 -109q63 -63 176 -63q94 0 151.5 46t57.5 124q0 45 -34 80.5t-64.5 50t-104.5 45.5q-125 47 -187.5 106.5t-62.5 161.5q0 141 111 233.5t299 92.5q147 0 233 -53.5t86 -133.5q0 -57 -33.5 -97t-99.5 -40 q-51 0 -87 34t-36 75q0 72 64 114q-41 61 -152 62q-94 0 -146 -48.5t-52 -119.5q0 -31 14 -56.5t50 -48t61.5 -35t81.5 -36.5q129 -55 190 -114.5t61 -152.5q0 -143 -105.5 -236t-330.5 -93q-145 0 -244.5 49t-99.5 137z" />
<glyph unicode="t" horiz-adv-x="741" d="M109 166q0 53 22 131l172 590h-190l18 51h188l89 311l282 37l-108 -348h260l-17 -51h-258l-164 -584q-18 -68 -18 -113q0 -98 117 -98q86 0 184 31v-23q-188 -116 -351 -116h-3q-223 0 -223 182z" />
<glyph unicode="u" horiz-adv-x="1179" d="M82 180q-1 59 24 139l154 476q6 19 6 34q0 25 -18 41q-28 24 -119 31v25l442 26l-202 -645q-18 -57 -19 -100q0 -92 100.5 -92t227.5 114l115 396l84 323h276l-225 -741q-18 -59 -19 -92q0 -43 39 -55q26 -8 84 -9q28 0 62 2v-22q-135 -47 -248 -47q-190 0 -191 125 q0 37 15 73l-6 6q-179 -204 -367 -204h-2q-102 0 -157.5 51t-55.5 145z" />
<glyph unicode="v" horiz-adv-x="1015" d="M27 891v24l403 43l66 -606l10 -231h10l102 141q166 231 213 391q-114 47 -114 156q0 72 40 114t111 42q63 0 104.5 -44t41.5 -106q0 -74 -39 -146.5t-176 -250.5l-342 -449l-193 21l-20 317l-56 473q-10 66 -40.5 87.5t-120.5 23.5z" />
<glyph unicode="w" horiz-adv-x="1540" d="M27 891v24l403 43l66 -606l8 -231h10l129 207q82 127 129 252l-41 350l264 28l62 -606l10 -233h10l101 143q156 215 206 391q-114 47 -114 156q0 72 40 114t111 42q63 0 104.5 -44t41.5 -106q0 -74 -37 -146.5t-172 -250.5l-338 -451l-197 23l-18 317l-17 139l-327 -477 l-199 21l-18 317l-56 473q-10 66 -40.5 87.5t-120.5 23.5z" />
<glyph unicode="x" horiz-adv-x="1071" d="M-57 113q0 63 37.5 105t105.5 42q61 0 99 -49q30 -39 30 -89q0 -13 -2 -28q25 14 71 72.5t85 130.5l67 127l-143 350q-29 68 -62.5 92.5t-126.5 26.5v25l394 36l127 -389h6l69 156q55 127 118 186.5t147 59.5q72 0 113.5 -44t41.5 -107.5t-40 -105.5t-97 -42t-95 38 q-36 36 -36 105v8q-74 -37 -147 -198l-56 -113l125 -303q45 -109 80 -137.5t135 -34.5v-23l-397 -24l-125 393h-6l-80 -162q-66 -139 -131.5 -195.5t-143.5 -56.5q-74 0 -118.5 43t-44.5 105z" />
<glyph unicode="y" horiz-adv-x="999" d="M-186 -240q0 66 43 111t106 45q61 0 101 -41t40 -106q0 -78 -55 -119q174 8 303 188l-94 531l-80 411q-12 66 -44 87.5t-122 23.5v24l404 43l82 -456l57 -410h8l88 141q160 244 185 416q-63 18 -100.5 61.5t-37.5 100.5q0 70 40 112t110 42q66 0 105.5 -44t39.5 -110 q0 -84 -55 -196.5t-227 -385.5q-168 -262 -292 -404t-213 -188.5t-194 -46.5q-94 0 -146 46.5t-52 123.5z" />
<glyph unicode="z" horiz-adv-x="933" d="M-29 27l777 721l-5 10l-329 -6q-111 -2 -159 -34t-116 -140l-28 4l102 366h731l14 -71l-753 -701l4 -6q72 35 172 35q45 0 137 -7.5t119 -7.5q80 0 121 33t71 131l25 -4q-16 -158 -51 -239.5t-79 -104t-120 -22.5q-88 0 -209 10t-168 10q-151 0 -225 -35z" />
<glyph unicode="{" horiz-adv-x="827" d="M86 653l8 33q135 12 200.5 29.5t108.5 60.5t62.5 129t24 170t41 187.5t108.5 175.5q70 70 176.5 98.5t327.5 28.5l-8 -31q-170 -6 -246 -82q-57 -57 -89 -151.5t-40 -178.5t-39 -178t-90 -151q-59 -59 -151.5 -87t-262.5 -36l-6 -11q201 -16 279.5 -81.5t78.5 -174.5 q0 -76 -51 -245.5t-51 -247.5q0 -100 46 -157.5t161 -67.5l-8 -31q-219 2 -341 87t-122 220q0 88 67.5 274.5t67.5 256.5q0 80 -52.5 113.5t-199.5 47.5z" />
<glyph unicode="|" horiz-adv-x="626" d="M287 -440v1968h53v-1968h-53z" />
<glyph unicode="}" horiz-adv-x="827" d="M-244 -346l8 31q166 6 246 86q57 57 89 157.5t42.5 192.5t43 193.5t91.5 160.5q61 59 154.5 87t259.5 34l8 10q-203 16 -280.5 82t-77.5 174q0 74 46 221.5t46 225.5q0 102 -46 159.5t-161 67.5l8 29q221 -2 343 -87t122 -221q0 -90 -63.5 -251.5t-63.5 -231.5 q0 -78 51.5 -112.5t198.5 -49.5l-6 -32q-131 -10 -199.5 -29t-111.5 -62q-45 -45 -65.5 -138t-26.5 -185t-43 -201.5t-109 -181.5q-70 -70 -177.5 -99.5t-326.5 -29.5z" />
<glyph unicode="~" horiz-adv-x="780" d="M102 498q29 152 82.5 218t137.5 66q49 0 163.5 -54t151.5 -54q49 0 72.5 22.5t52.5 100.5h29q-31 -154 -82.5 -219.5t-137.5 -65.5q-49 0 -163.5 53t-153.5 53q-49 0 -72.5 -22.5t-52.5 -97.5h-27z" />
<glyph unicode="&#xa1;" horiz-adv-x="581" d="M53 118.5q0 69.5 57.5 207t160 354.5t161.5 369l31 -9q-27 -164 -55.5 -502.5t-49.5 -418.5q-43 -154 -163 -154q-63 0 -102.5 42t-39.5 111.5zM360 1323q0 68 48.5 115t118 47t116.5 -46t47 -114q0 -66 -48 -114t-117.5 -48t-117 47t-47.5 113z" />
<glyph unicode="&#xa2;" horiz-adv-x="1107" d="M111 381q0 244 175 413t423 169h16l35 137l51 -10l-35 -132q143 -14 227 -87.5t84 -176.5q0 -59 -39.5 -105t-101 -46t-100.5 34.5t-39 90.5q0 109 108 153q-51 84 -147 99l-215 -826q43 -12 94 -12q84 0 170 51t141 137l29 -18q-70 -127 -191.5 -197.5t-269.5 -70.5h-2 l-43 -164l-53 10l41 158q-162 16 -260 121.5t-98 271.5zM381 373q0 -182 123 -256l209 805q-133 -14 -232.5 -183t-99.5 -366z" />
<glyph unicode="&#xa3;" horiz-adv-x="1259" d="M-35 86q0 76 78 129t203 53q43 0 112 -4q59 104 60 244q0 70 -23 174h-233l12 43h213q-18 96 -18 184q0 209 159.5 345.5t403.5 136.5q172 0 269 -84t97 -207q0 -88 -51 -143.5t-127 -55.5q-72 0 -117 40t-45 110q0 72 49.5 121t125.5 53q-12 49 -67.5 88t-131.5 39 q-125 0 -196.5 -88t-71.5 -254q0 -51 14 -148.5t16 -136.5h330l-12 -43h-314v-25q0 -276 -294 -395q51 -4 207.5 -25.5t277.5 -21.5q115 0 171 44t105 163l35 -6q-57 -231 -150.5 -338t-250.5 -107q-72 0 -129.5 13.5t-115.5 51.5t-85 60.5t-94 83.5q-12 10 -19 17 q-117 -225 -274 -226q-55 0 -87 34t-32 81z" />
<glyph unicode="&#xa5;" horiz-adv-x="1415" d="M129 438l12 43h414l33 125l-8 31h-398l13 43h372l-137 514q-16 68 -51 95.5t-127 47.5l8 27h692l-8 -27q-145 -6 -186 -35.5t-29 -87.5l133 -546l359 434q80 94 63.5 153.5t-139.5 79.5l6 29h479l-6 -27q-102 -20 -179 -75.5t-185 -188.5l-328 -393h373l-13 -43h-395 l-33 -39l-30 -117h417l-10 -43h-420l-78 -303q-16 -59 21 -80.5t170 -27.5l-8 -27h-715l4 27q133 6 183.5 29.5t66.5 78.5l78 303h-414z" />
<glyph unicode="&#xa6;" horiz-adv-x="626" d="M287 397h53v-837h-53v837zM287 690v838h53v-838h-53z" />
<glyph unicode="&#xa7;" horiz-adv-x="1230" d="M41 -31q0 59 40 108.5t109 49.5q57 0 89 -34t32 -81q0 -94 -82 -137q18 -43 92 -78t164 -35q139 0 218 66t79 154q0 80 -69.5 127t-204.5 96q-70 27 -116 48t-97 58t-76.5 86t-25.5 113q0 109 77.5 190.5t227.5 112.5q-131 84 -131 223q0 141 134 248t339 107 q193 0 297 -73t104 -171q0 -59 -37 -103.5t-102 -44.5q-59 0 -92 34t-33 81q0 94 76 127q-20 43 -80 75t-144 32q-123 0 -197.5 -59.5t-74.5 -149.5q0 -29 15.5 -55.5t33 -44t59.5 -40t65.5 -33t78.5 -34.5q170 -68 245.5 -135.5t75.5 -188.5q0 -96 -69.5 -179t-208.5 -126 q113 -84 113 -209q0 -152 -133.5 -264.5t-352.5 -112.5t-328.5 77t-109.5 175zM395 623q0 -74 65.5 -124t184.5 -96q115 -43 174 -77q113 55 113 172q0 84 -61.5 132t-194.5 103q-127 53 -148 64q-133 -51 -133 -174z" />
<glyph unicode="&#xa8;" horiz-adv-x="796" d="M246 1212q0 80 51 135.5t125 55.5q49 0 84 -33t35 -92q0 -80 -51 -135.5t-123 -55.5q-49 0 -85 34t-36 91zM666 1212q0 80 51 135.5t125 55.5q49 0 84 -33t35 -92q0 -80 -52.5 -135.5t-124.5 -55.5q-47 0 -82.5 34t-35.5 91z" />
<glyph unicode="&#xa9;" horiz-adv-x="1716" d="M154 596q0 242 105.5 446.5t302 329.5t444.5 125q303 0 493.5 -186.5t190.5 -479.5q0 -242 -105.5 -446.5t-302 -329.5t-444.5 -125q-303 0 -493.5 187.5t-190.5 478.5zM195 598q0 -276 179 -454.5t466 -178.5q238 0 424 120t285.5 316.5t99.5 427.5q0 279 -178.5 456 t-466.5 177q-238 0 -424.5 -119.5t-285.5 -316.5t-99 -428zM537 647q0 193 136 341.5t357 148.5q94 0 207 -62l53 58h31l-70 -297h-30q-45 162 -85 217t-114 55q-113 0 -206 -156.5t-93 -337.5q0 -248 211 -247q158 0 285 178l22 -19q-63 -100 -159.5 -159.5t-209.5 -59.5 q-150 0 -242.5 91t-92.5 249z" />
<glyph unicode="&#xaa;" horiz-adv-x="960" d="M182 932q0 199 135.5 341t290.5 142q109 0 156 -102l31 86l215 18l-82 -248l-97 -319q-27 -78 -4 -101.5t127 -15.5v-20q-94 -33 -188 -33q-76 0 -109.5 29.5t-25.5 95.5l-8 4q-99 -131 -222 -131q-98 0 -158.5 67.5t-60.5 186.5zM406 918q0 -148 100 -148q61 0 115 84 l116 393q-8 115 -86 115q-98 0 -171.5 -150.5t-73.5 -293.5z" />
<glyph unicode="&#xab;" horiz-adv-x="1040" d="M72 485.5q0 18.5 65 61.5l477 325l23 -24l-336 -379l129 -393l-31 -19l-288 361q-39 49 -39 67.5zM479 479.5q0 16.5 70 63.5l477 331l23 -24l-334 -385l129 -402l-31 -18l-293 365q-41 53 -41 69.5z" />
<glyph unicode="&#xad;" horiz-adv-x="749" d="M117 489l22 84h525l-23 -84h-524z" />
<glyph unicode="&#xae;" horiz-adv-x="772" d="M223 1149q0 145 101.5 246.5t246.5 101.5q123 0 203 -80t80 -203q0 -145 -101.5 -246.5t-246.5 -101.5q-123 0 -203 80t-80 203zM252 1151q0 -113 71.5 -186.5t184.5 -73.5q131 0 224 94t93 227q0 113 -71.5 187t-184.5 74q-131 0 -224 -94.5t-93 -227.5zM348 1026l4 14 q51 2 56 21l67 264q2 10 -9 15.5t-40 7.5l4 14h152q125 0 125 -80q0 -74 -115 -88l-2 -6q39 -4 57.5 -18.5t16.5 -41.5v-49q-2 -25 5 -34t31 -9l-4 -14q-4 -2 -43 -2t-54 15.5t-13 49.5l4 33q2 37 -9.5 51.5t-43.5 14.5h-27l-29 -123q-2 -10 4.5 -14.5t28.5 -6.5l-4 -14 h-162zM514 1200h27q41 0 66.5 24.5t25.5 69.5q0 49 -66 49h-18z" />
<glyph unicode="&#xaf;" horiz-adv-x="657" d="M221 1139l25 96h596l-25 -96h-596z" />
<glyph unicode="&#xb0;" horiz-adv-x="798" d="M201 1102q0 152 115.5 262.5t269.5 110.5q113 0 190.5 -62.5t77.5 -187.5q0 -152 -114.5 -262.5t-268.5 -110.5q-115 0 -192.5 62.5t-77.5 187.5zM369 1049q0 -154 104 -154q63 0 114.5 70.5t75 156.5t23.5 154q0 156 -102 156q-92 0 -153.5 -134t-61.5 -249z" />
<glyph unicode="&#xb1;" horiz-adv-x="1085" d="M-6 0l12 45h842l-12 -45h-842zM164 643l12 45h395l107 395h53l-106 -395h395l-12 -45h-396l-106 -401h-53l106 401h-395z" />
<glyph unicode="&#xb4;" horiz-adv-x="487" d="M236 1077l180 314q55 96 84.5 126.5t77.5 30.5q43 0 72.5 -29.5t29.5 -68.5q0 -41 -45 -86t-207 -166l-162 -121h-30z" />
<glyph unicode="&#xb6;" horiz-adv-x="1437" d="M264 788q0 233 202 404.5t558 171.5h561l-6 -25q-154 -10 -209 -33.5t-74 -91.5l-378 -1417h-54l408 1526h-189l-409 -1526h-56l158 584q-246 20 -379 127.5t-133 279.5z" />
<glyph unicode="&#xb7;" horiz-adv-x="526" d="M150 657q0 68 48 115t119 47q70 0 116 -46t46 -111q0 -68 -48 -115t-117.5 -47t-116.5 46t-47 111z" />
<glyph unicode="&#xb8;" horiz-adv-x="577" d="M-152 -449l19 31q82 -47 158 -47q61 0 97 32t36 79t-45 74.5t-121 27.5q-23 0 -64 -4l-4 20l305 244h54l-177 -137l3 -8q225 -25 225 -168q0 -88 -83 -142.5t-196 -54.5q-119 0 -207 53z" />
<glyph unicode="&#xba;" horiz-adv-x="931" d="M193 975q0 166 122.5 303t319.5 137q145 0 230 -83t85 -228q0 -158 -121.5 -293t-318.5 -135q-143 0 -230 81t-87 218zM399 858q1 -147 101 -147q74 0 132 96t84.5 213t26.5 213q0 147 -100 147q-72 0 -131 -96t-86 -213t-27 -213z" />
<glyph unicode="&#xbb;" horiz-adv-x="1038" d="M6 80l334 385l-129 401l31 19l293 -365q41 -55 40 -69q0 -16 -69 -64l-477 -332zM418 82l336 377l-129 395l30 18l289 -360q39 -49 39 -70q0 -16 -65 -59l-478 -326z" />
<glyph unicode="&#xbf;" horiz-adv-x="1030" d="M39 348q0 178 167 290t464 153l80 264l55 -13l-86 -278q-209 -63 -307.5 -209.5t-98.5 -323.5q0 -217 222 -217q82 0 150.5 40t94.5 89q-135 31 -135 160q-2 61 41 106.5t111 45.5q72 0 118 -47.5t46 -116.5q2 -129 -126 -223.5t-311 -94.5q-221 0 -353 105.5t-132 269.5 zM678 1329q0 66 48 114t117.5 48t117 -46t47.5 -114q0 -66 -48.5 -114t-118 -48t-116.5 46.5t-47 113.5z" />
<glyph unicode="&#xc0;" horiz-adv-x="1449" d="M-143 0l6 29q113 16 196.5 86.5t176.5 216.5l702 1122h147l158 -1257q10 -94 43 -124t150 -44l-6 -29h-715l6 29q145 6 188 36.5t33 112.5l-43 369h-473l-145 -240q-80 -135 -58.5 -198.5t150.5 -79.5l-6 -29h-510zM453 588h442l-68 598h-12zM741 1935q0 39 32 70t77 31 t71.5 -38t59.5 -132l104 -297h-24l-205 196q-61 61 -88 98.5t-27 71.5z" />
<glyph unicode="&#xc1;" horiz-adv-x="1449" d="M-143 0l6 29q113 16 196.5 86.5t176.5 216.5l702 1122h147l158 -1257q10 -94 43 -124t150 -44l-6 -29h-715l6 29q145 6 188 36.5t33 112.5l-43 369h-473l-145 -240q-80 -135 -58.5 -198.5t150.5 -79.5l-6 -29h-510zM453 588h442l-68 598h-12zM936 1569l180 313 q55 96 85 127t77 31q43 0 72.5 -30t29.5 -68q0 -41 -45 -86.5t-207 -165.5l-161 -121h-31z" />
<glyph unicode="&#xc2;" horiz-adv-x="1449" d="M-143 0l6 29q113 16 196.5 86.5t176.5 216.5l702 1122h147l158 -1257q10 -94 43 -124t150 -44l-6 -29h-715l6 29q145 6 188 36.5t33 112.5l-43 369h-473l-145 -240q-80 -135 -58.5 -198.5t150.5 -79.5l-6 -29h-510zM453 588h442l-68 598h-12zM719 1563l403 426h27 l166 -426h-33l-211 182l-307 -182h-45z" />
<glyph unicode="&#xc3;" horiz-adv-x="1449" d="M-143 0l6 29q113 16 196.5 86.5t176.5 216.5l702 1122h147l158 -1257q10 -94 43 -124t150 -44l-6 -29h-715l6 29q145 6 188 36.5t33 112.5l-43 369h-473l-145 -240q-80 -135 -58.5 -198.5t150.5 -79.5l-6 -29h-510zM453 588h442l-68 598h-12zM735 1571q31 152 84 218 t137 66q47 0 156 -56t143 -56q47 0 67.5 20.5t53.5 100.5h33q-31 -154 -83 -219.5t-138 -65.5q-47 0 -154.5 55.5t-144.5 55.5q-45 0 -66.5 -21.5t-54.5 -97.5h-33z" />
<glyph unicode="&#xc4;" horiz-adv-x="1449" d="M-143 0l6 29q113 16 196.5 86.5t176.5 216.5l702 1122h147l158 -1257q10 -94 43 -124t150 -44l-6 -29h-715l6 29q145 6 188 36.5t33 112.5l-43 369h-473l-145 -240q-80 -135 -58.5 -198.5t150.5 -79.5l-6 -29h-510zM453 588h442l-68 598h-12zM713 1704q0 80 51 135 t125 55q49 0 84 -32.5t35 -92.5q0 -80 -51 -135t-123 -55q-49 0 -85 34t-36 91zM1133 1704q0 80 51 135t125 55q49 0 83.5 -32.5t34.5 -92.5q0 -80 -52 -135t-124 -55q-47 0 -82.5 34t-35.5 91z" />
<glyph unicode="&#xc5;" horiz-adv-x="1449" d="M-143 0l6 27q113 16 196.5 86.5t176.5 218.5l692 1106q-131 39 -131 184q0 119 89 203t212 84q92 0 150.5 -49.5t58.5 -147.5q0 -96 -61.5 -172t-158.5 -100l156 -1243q12 -96 45 -126t148 -44l-6 -27h-715l6 27q143 6 187 37.5t34 113.5l-43 369h-473l-145 -240 q-80 -135 -58.5 -198.5t150.5 -79.5l-6 -29h-510zM453 588h442l-68 598h-12zM934 1577q0 -119 73.5 -119t117.5 100.5t44 198.5q0 119 -73.5 119t-117.5 -100.5t-44 -198.5z" />
<glyph unicode="&#xc6;" horiz-adv-x="2248" d="M-141 0l8 29q129 27 213 85t215 203l792 895q53 59 54 99q0 72 -205 90l6 26h1391l-119 -477h-33q-18 98 -33.5 156.5t-41 119t-59.5 90.5t-86 49t-124 19h-223l-164 -610h109q115 0 174 46t176 208h30l-147 -573h-31q-16 86 -24 118.5t-23.5 75.5t-35 54.5t-50.5 20.5 t-80 9h-108l-185 -690h265q104 0 188 28.5t159 95t132 141.5t137 200h35l-141 -508h-1295l6 29q133 4 178.5 21.5t59.5 72.5l121 459h-504l-250 -285q-96 -113 -96 -176q0 -80 147 -92l-8 -29h-530zM633 623h477l201 745h-23z" />
<glyph unicode="&#xc7;" horiz-adv-x="1462" d="M125 578q0 160 63.5 316.5t176 283.5t286.5 205.5t375 78.5q195 0 365 -100l116 94h33l-133 -518h-33q-78 287 -151.5 385t-208.5 98q-143 0 -279.5 -144t-216.5 -355t-80 -410q0 -225 97.5 -345t287.5 -120q137 0 275.5 86t259.5 250l35 -23q-115 -166 -280 -273 t-355 -120l-123 -96l2 -8q225 -25 225 -168q0 -88 -82.5 -142.5t-195.5 -54.5q-119 0 -207 53l18 31q82 -47 158 -47q61 0 97 32t36 79t-45 74.5t-121 27.5q-23 0 -63 -4l-4 20l249 201q-256 4 -416.5 169t-160.5 444z" />
<glyph unicode="&#xc8;" horiz-adv-x="1452" d="M-63 0l6 29q135 4 179 21.5t58 72.5l318 1184q12 45 -23 66.5t-164 27.5l6 26h1219l-119 -477h-33q-18 98 -33.5 156.5t-41 119t-59 90.5t-86 49t-124.5 19h-225l-162 -610h109q115 0 174 46t176 208h31l-150 -573h-30q-37 184 -62 223q-47 53 -149 55h-111l-184 -690 h266q104 0 188 28.5t159 95t132.5 141.5t136.5 200h35l-141 -508h-1296zM748 1935q0 39 31.5 70t76.5 31t71.5 -38t59.5 -132l105 -297h-25l-205 196q-61 61 -87.5 98.5t-26.5 71.5z" />
<glyph unicode="&#xc9;" horiz-adv-x="1452" d="M-63 0l6 29q135 4 179 21.5t58 72.5l318 1184q12 45 -23 66.5t-164 27.5l6 26h1219l-119 -477h-33q-18 98 -33.5 156.5t-41 119t-59 90.5t-86 49t-124.5 19h-225l-162 -610h109q115 0 174 46t176 208h31l-150 -573h-30q-37 184 -62 223q-47 53 -149 55h-111l-184 -690 h266q104 0 188 28.5t159 95t132.5 141.5t136.5 200h35l-141 -508h-1296zM928 1569l180 313q55 96 85 127t77 31q43 0 72.5 -30t29.5 -68q0 -41 -45 -86.5t-207 -165.5l-162 -121h-30z" />
<glyph unicode="&#xca;" horiz-adv-x="1452" d="M-63 0l6 29q135 4 179 21.5t58 72.5l318 1184q12 45 -23 66.5t-164 27.5l6 26h1219l-119 -477h-33q-18 98 -33.5 156.5t-41 119t-59 90.5t-86 49t-124.5 19h-225l-162 -610h109q115 0 174 46t176 208h31l-150 -573h-30q-37 184 -62 223q-47 53 -149 55h-111l-184 -690 h266q104 0 188 28.5t159 95t132.5 141.5t136.5 200h35l-141 -508h-1296zM715 1569l403 426h27l166 -426h-33l-211 182l-307 -182h-45z" />
<glyph unicode="&#xcb;" horiz-adv-x="1452" d="M-63 0l6 29q135 4 179 21.5t58 72.5l318 1184q12 45 -23 66.5t-164 27.5l6 26h1219l-119 -477h-33q-18 98 -33.5 156.5t-41 119t-59 90.5t-86 49t-124.5 19h-225l-162 -610h109q115 0 174 46t176 208h31l-150 -573h-30q-37 184 -62 223q-47 53 -149 55h-111l-184 -690 h266q104 0 188 28.5t159 95t132.5 141.5t136.5 200h35l-141 -508h-1296zM709 1704q0 80 51 135t125 55q49 0 84 -32.5t35 -92.5q0 -80 -51.5 -135t-123.5 -55q-49 0 -84.5 34t-35.5 91zM1128 1704q0 80 51.5 135t125.5 55q49 0 83.5 -32.5t34.5 -92.5q0 -80 -52 -135 t-124 -55q-47 0 -83 34t-36 91z" />
<glyph unicode="&#xcc;" horiz-adv-x="894" d="M-49 0l6 29q137 4 184 21.5t62 72.5l317 1184q12 47 -25.5 67.5t-170.5 26.5l6 26h741l-6 -26q-131 -6 -182.5 -27.5t-63.5 -64.5l-317 -1186q-14 -55 22.5 -72.5t175.5 -21.5l-6 -29h-743zM463 1935q0 39 31.5 70t76.5 31t72 -38t59 -132l105 -297h-25l-204 196 q-61 61 -88 98.5t-27 71.5z" />
<glyph unicode="&#xcd;" horiz-adv-x="894" d="M-49 0l6 29q137 4 184 21.5t62 72.5l317 1184q12 47 -25.5 67.5t-170.5 26.5l6 26h741l-6 -26q-131 -6 -182.5 -27.5t-63.5 -64.5l-317 -1186q-14 -55 22.5 -72.5t175.5 -21.5l-6 -29h-743zM621 1569l180 313q55 96 84.5 127t77.5 31q43 0 72.5 -30t29.5 -68 q0 -41 -45 -86.5t-207 -165.5l-162 -121h-30z" />
<glyph unicode="&#xce;" horiz-adv-x="894" d="M-49 0l6 29q137 4 184 21.5t62 72.5l317 1184q12 47 -25.5 67.5t-170.5 26.5l6 26h741l-6 -26q-131 -6 -182.5 -27.5t-63.5 -64.5l-317 -1186q-14 -55 22.5 -72.5t175.5 -21.5l-6 -29h-743zM426 1569l403 426h27l166 -426h-33l-211 182l-307 -182h-45z" />
<glyph unicode="&#xcf;" horiz-adv-x="894" d="M-49 0l6 29q137 4 184 21.5t62 72.5l317 1184q12 47 -25.5 67.5t-170.5 26.5l6 26h741l-6 -26q-131 -6 -182.5 -27.5t-63.5 -64.5l-317 -1186q-14 -55 22.5 -72.5t175.5 -21.5l-6 -29h-743zM426 1704q0 80 51 135t125 55q49 0 84 -32.5t35 -92.5q0 -80 -51 -135t-123 -55 q-49 0 -85 34t-36 91zM846 1704q0 80 51 135t125 55q49 0 84 -32.5t35 -92.5q0 -80 -52 -135t-124 -55q-47 0 -83 34t-36 91z" />
<glyph unicode="&#xd0;" horiz-adv-x="1591" d="M-63 0l6 29q135 4 179 21.5t58 72.5l160 594h-201l13 53h202l144 537q12 45 -23 66.5t-164 27.5l6 26h615q303 0 483 -155.5t180 -423.5q0 -160 -65.5 -317.5t-186.5 -278.5q-248 -252 -628 -252h-778zM457 41h225q184 0 324 139q139 141 211.5 383t72.5 441 q0 184 -80 283t-272 99h-121l-166 -616h281l-12 -53h-283z" />
<glyph unicode="&#xd1;" horiz-adv-x="1656" d="M-76 0l6 29q141 16 211 80.5t107 203.5l235 889q20 74 -24.5 133.5t-159.5 65.5l6 26h447l555 -1091h2l204 778q41 152 -2 213.5t-192 73.5l6 26h563l-6 -26q-139 -16 -206.5 -81t-104.5 -206l-305 -1137h-107l-618 1217h-2l-236 -879q-39 -154 2 -215t191 -71l-7 -29 h-565zM836 1571q31 152 84 218t137 66q49 0 155.5 -56t143.5 -56q47 0 67.5 20.5t53.5 100.5h32q-31 -154 -83 -219.5t-138 -65.5q-47 0 -154.5 55.5t-144.5 55.5q-45 0 -66.5 -21.5t-54.5 -97.5h-32z" />
<glyph unicode="&#xd2;" d="M125 561q0 156 61.5 313.5t170 289.5t274.5 215t358 83q260 0 430 -159.5t170 -434.5q0 -156 -61.5 -314.5t-170 -290.5t-274 -215t-358.5 -83q-262 0 -431 160t-169 436zM422 385q0 -182 66.5 -280.5t197.5 -98.5q129 0 245 101.5t192.5 256t121.5 335t45 343.5 q0 379 -262 379q-170 0 -313.5 -171t-218 -407.5t-74.5 -457.5zM803 1935q0 39 31.5 70t76.5 31t72 -38t59 -132l105 -297h-25l-204 196q-61 61 -88 98.5t-27 71.5z" />
<glyph unicode="&#xd3;" d="M125 561q0 156 61.5 313.5t170 289.5t274.5 215t358 83q260 0 430 -159.5t170 -434.5q0 -156 -61.5 -314.5t-170 -290.5t-274 -215t-358.5 -83q-262 0 -431 160t-169 436zM422 385q0 -182 66.5 -280.5t197.5 -98.5q129 0 245 101.5t192.5 256t121.5 335t45 343.5 q0 379 -262 379q-170 0 -313.5 -171t-218 -407.5t-74.5 -457.5zM961 1569l180 313q55 96 84.5 127t77.5 31q43 0 72.5 -30t29.5 -68q0 -41 -45 -86.5t-207 -165.5l-162 -121h-30z" />
<glyph unicode="&#xd4;" d="M125 561q0 156 61.5 313.5t170 289.5t274.5 215t358 83q260 0 430 -159.5t170 -434.5q0 -156 -61.5 -314.5t-170 -290.5t-274 -215t-358.5 -83q-262 0 -431 160t-169 436zM422 385q0 -182 66.5 -280.5t197.5 -98.5q129 0 245 101.5t192.5 256t121.5 335t45 343.5 q0 379 -262 379q-170 0 -313.5 -171t-218 -407.5t-74.5 -457.5zM770 1569l404 426h26l166 -426h-33l-211 182l-307 -182h-45z" />
<glyph unicode="&#xd5;" d="M125 561q0 156 61.5 313.5t170 289.5t274.5 215t358 83q260 0 430 -159.5t170 -434.5q0 -156 -61.5 -314.5t-170 -290.5t-274 -215t-358.5 -83q-262 0 -431 160t-169 436zM422 385q0 -182 66.5 -280.5t197.5 -98.5q129 0 245 101.5t192.5 256t121.5 335t45 343.5 q0 379 -262 379q-170 0 -313.5 -171t-218 -407.5t-74.5 -457.5zM778 1571q31 152 84 218t137 66q49 0 156 -56t143 -56q47 0 67.5 20.5t53.5 100.5h33q-31 -154 -83 -219.5t-138 -65.5q-47 0 -154.5 55.5t-144.5 55.5q-45 0 -66.5 -21.5t-54.5 -97.5h-33z" />
<glyph unicode="&#xd6;" d="M125 561q0 156 61.5 313.5t170 289.5t274.5 215t358 83q260 0 430 -159.5t170 -434.5q0 -156 -61.5 -314.5t-170 -290.5t-274 -215t-358.5 -83q-262 0 -431 160t-169 436zM422 385q0 -182 66.5 -280.5t197.5 -98.5q129 0 245 101.5t192.5 256t121.5 335t45 343.5 q0 379 -262 379q-170 0 -313.5 -171t-218 -407.5t-74.5 -457.5zM764 1704q0 80 51 135t125 55q49 0 84 -32.5t35 -92.5q0 -80 -51 -135t-123 -55q-49 0 -85 34t-36 91zM1184 1704q0 80 51 135t125 55q49 0 84 -32.5t35 -92.5q0 -80 -52 -135t-124 -55q-47 0 -83 34t-36 91z " />
<glyph unicode="&#xd7;" horiz-adv-x="1138" d="M121 301l463 365l-267 364l39 31l267 -365l467 369l26 -39l-465 -367l267 -362l-39 -31l-267 363l-465 -367z" />
<glyph unicode="&#xd8;" d="M76 -74l203 213q-154 160 -154 422q0 156 61.5 313.5t170 289.5t274.5 215t358 83q252 0 414 -143l174 182h61l-202 -215q154 -160 153 -418q0 -156 -61.5 -314.5t-170 -290.5t-274 -215t-358.5 -83q-252 0 -414 144l-174 -183h-61zM422 385q0 -37 4 -94l850 895 q-45 236 -248 235q-170 0 -313.5 -171t-218 -407.5t-74.5 -457.5zM434 240q47 -234 252 -234q129 0 245 101.5t192.5 256t121.5 335t45 343.5q0 51 -6 95z" />
<glyph unicode="&#xd9;" horiz-adv-x="1652" d="M229 375q0 88 29 196l197 736q12 45 -23 66.5t-164 27.5l6 26h707l-6 -26q-121 -8 -165 -28.5t-56 -67.5l-207 -766q-31 -121 -31 -207q0 -297 315 -297q178 0 298 104.5t184 343.5l172 645q37 133 -8 197t-191 76l6 26h561l-6 -26q-141 -16 -203.5 -72.5t-101.5 -198.5 l-184 -690q-63 -242 -210 -358.5t-417 -116.5q-242 0 -373 105.5t-129 304.5zM850 1935q0 39 31.5 70t77 31t72 -38t59.5 -132l104 -297h-25l-204 196q-61 61 -88 98.5t-27 71.5z" />
<glyph unicode="&#xda;" horiz-adv-x="1652" d="M229 375q0 88 29 196l197 736q12 45 -23 66.5t-164 27.5l6 26h707l-6 -26q-121 -8 -165 -28.5t-56 -67.5l-207 -766q-31 -121 -31 -207q0 -297 315 -297q178 0 298 104.5t184 343.5l172 645q37 133 -8 197t-191 76l6 26h561l-6 -26q-141 -16 -203.5 -72.5t-101.5 -198.5 l-184 -690q-63 -242 -210 -358.5t-417 -116.5q-242 0 -373 105.5t-129 304.5zM1016 1569l180 313q55 96 85 127t77 31q43 0 72.5 -30t29.5 -68q0 -41 -45 -86.5t-207 -165.5l-161 -121h-31z" />
<glyph unicode="&#xdb;" horiz-adv-x="1652" d="M229 375q0 88 29 196l197 736q12 45 -23 66.5t-164 27.5l6 26h707l-6 -26q-121 -8 -165 -28.5t-56 -67.5l-207 -766q-31 -121 -31 -207q0 -297 315 -297q178 0 298 104.5t184 343.5l172 645q37 133 -8 197t-191 76l6 26h561l-6 -26q-141 -16 -203.5 -72.5t-101.5 -198.5 l-184 -690q-63 -242 -210 -358.5t-417 -116.5q-242 0 -373 105.5t-129 304.5zM827 1569l404 426h26l166 -426h-32l-211 182l-308 -182h-45z" />
<glyph unicode="&#xdc;" horiz-adv-x="1652" d="M229 375q0 88 29 196l197 736q12 45 -23 66.5t-164 27.5l6 26h707l-6 -26q-121 -8 -165 -28.5t-56 -67.5l-207 -766q-31 -121 -31 -207q0 -297 315 -297q178 0 298 104.5t184 343.5l172 645q37 133 -8 197t-191 76l6 26h561l-6 -26q-141 -16 -203.5 -72.5t-101.5 -198.5 l-184 -690q-63 -242 -210 -358.5t-417 -116.5q-242 0 -373 105.5t-129 304.5zM819 1704q0 80 51.5 135t124.5 55q49 0 84 -32.5t35 -92.5q0 -80 -51 -135t-123 -55q-49 0 -85 34t-36 91zM1239 1704q0 80 51 135t125 55q49 0 84 -32.5t35 -92.5q0 -80 -52 -135t-124 -55 q-47 0 -83 34t-36 91z" />
<glyph unicode="&#xdd;" horiz-adv-x="1417" d="M199 1401l6 26h710l-6 -26q-156 -6 -196.5 -38t-20.5 -93l191 -600l364 456q96 121 83 184.5t-144 90.5l6 26h514l-6 -26q-111 -18 -194.5 -79t-202.5 -206l-402 -491l-133 -502q-14 -55 22.5 -72.5t174.5 -21.5l-7 -29h-741l6 29q137 4 184.5 21.5t61.5 72.5l135 502 l-194 626q-25 82 -60 106.5t-151 43.5zM961 1569l180 313q55 96 84.5 127t77.5 31q43 0 72.5 -30t29.5 -68q0 -41 -45 -86.5t-207 -165.5l-162 -121h-30z" />
<glyph unicode="&#xde;" horiz-adv-x="1398" d="M-63 0l6 29q135 4 179 21.5t58 72.5l318 1184q12 45 -23 66.5t-164 27.5l6 26h701l-6 -26q-121 -8 -163 -28.5t-52 -67.5l-45 -166h98q285 0 412 -98.5t127 -243.5q0 -84 -38 -164t-116 -150.5t-219.5 -113.5t-327.5 -43h-156l-53 -203q-14 -53 23 -70.5t153 -23.5 l-6 -29h-712zM543 365h121q119 0 205.5 50t130.5 131t63.5 161.5t19.5 162.5q0 121 -58 174.5t-179 53.5h-107z" />
<glyph unicode="&#xdf;" horiz-adv-x="1163" d="M-428 -238q0 57 38 95.5t99 38.5q57 0 92 -39t35 -93q0 -37 -20.5 -69.5t-51.5 -46.5q29 -16 72 -17q61 0 106.5 56.5t77.5 208.5l250 1110q57 252 180 363.5t320 111.5q166 0 262 -62.5t96 -171.5q0 -74 -38.5 -126t-94 -82.5t-111 -59.5t-94 -73t-38.5 -103 q0 -53 56 -111.5t122.5 -106.5t123 -126t56.5 -166q0 -131 -94 -220t-285 -89q-117 0 -197.5 49t-80.5 137q0 59 35.5 99t95.5 40q53 0 85.5 -32.5t32.5 -81.5q0 -76 -65 -113q35 -59 129 -59q76 0 117 48t41 117q0 61 -34 112.5t-82 89.5t-96 77t-82 93t-34 120 q0 74 30.5 128t74.5 91t88.5 77t75 107.5t30.5 159.5q0 199 -133 199q-76 0 -124 -71t-87 -245l-199 -903q-76 -348 -192.5 -490.5t-327.5 -142.5q-125 0 -192.5 45.5t-67.5 126.5z" />
<glyph unicode="&#xe0;" horiz-adv-x="1136" d="M53 317q0 262 177.5 454t377.5 192q84 0 128 -34t75 -98l39 105l274 27l-110 -330l-125 -420q-20 -68 -21 -98q0 -43 40 -55.5t145 -6.5v-22q-129 -47 -246 -47q-90 0 -134 31.5t-42 109.5q0 18 2 31l-4 2q-133 -174 -297 -174q-121 0 -200 90t-79 243zM330 301 q0 -205 139 -205q82 0 156 115l157 534q-4 63 -37.5 109.5t-80.5 46.5q-84 0 -164 -102.5t-125 -241.5t-45 -256zM471 1444q0 39 32 69.5t77 30.5t71.5 -38t59.5 -132l104 -297h-24l-205 197q-61 61 -88 98t-27 72z" />
<glyph unicode="&#xe1;" horiz-adv-x="1136" d="M53 317q0 262 177.5 454t377.5 192q84 0 128 -34t75 -98l39 105l274 27l-110 -330l-125 -420q-20 -68 -21 -98q0 -43 40 -55.5t145 -6.5v-22q-129 -47 -246 -47q-90 0 -134 31.5t-42 109.5q0 18 2 31l-4 2q-133 -174 -297 -174q-121 0 -200 90t-79 243zM330 301 q0 -205 139 -205q82 0 156 115l157 534q-4 63 -37.5 109.5t-80.5 46.5q-84 0 -164 -102.5t-125 -241.5t-45 -256zM633 1077l180 314q55 96 85 126.5t77 30.5q43 0 72.5 -29.5t29.5 -68.5q0 -41 -45 -86t-207 -166l-161 -121h-31z" />
<glyph unicode="&#xe2;" horiz-adv-x="1136" d="M53 317q0 262 177.5 454t377.5 192q84 0 128 -34t75 -98l39 105l274 27l-110 -330l-125 -420q-20 -68 -21 -98q0 -43 40 -55.5t145 -6.5v-22q-129 -47 -246 -47q-90 0 -134 31.5t-42 109.5q0 18 2 31l-4 2q-133 -174 -297 -174q-121 0 -200 90t-79 243zM330 301 q0 -205 139 -205q82 0 156 115l157 534q-4 63 -37.5 109.5t-80.5 46.5q-84 0 -164 -102.5t-125 -241.5t-45 -256zM428 1077l403 426h27l166 -426h-33l-211 183l-307 -183h-45z" />
<glyph unicode="&#xe3;" horiz-adv-x="1136" d="M53 317q0 262 177.5 454t377.5 192q84 0 128 -34t75 -98l39 105l274 27l-110 -330l-125 -420q-20 -68 -21 -98q0 -43 40 -55.5t145 -6.5v-22q-129 -47 -246 -47q-90 0 -134 31.5t-42 109.5q0 18 2 31l-4 2q-133 -174 -297 -174q-121 0 -200 90t-79 243zM330 301 q0 -205 139 -205q82 0 156 115l157 534q-4 63 -37.5 109.5t-80.5 46.5q-84 0 -164 -102.5t-125 -241.5t-45 -256zM442 1079q31 152 84.5 218.5t137.5 66.5q49 0 155.5 -56.5t143.5 -56.5q47 0 67.5 20.5t52.5 100.5h33q-31 -154 -83 -219.5t-138 -65.5q-47 0 -154.5 55.5 t-144.5 55.5q-45 0 -66.5 -21.5t-54.5 -97.5h-33z" />
<glyph unicode="&#xe4;" horiz-adv-x="1136" d="M53 317q0 262 177.5 454t377.5 192q84 0 128 -34t75 -98l39 105l274 27l-110 -330l-125 -420q-20 -68 -21 -98q0 -43 40 -55.5t145 -6.5v-22q-129 -47 -246 -47q-90 0 -134 31.5t-42 109.5q0 18 2 31l-4 2q-133 -174 -297 -174q-121 0 -200 90t-79 243zM330 301 q0 -205 139 -205q82 0 156 115l157 534q-4 63 -37.5 109.5t-80.5 46.5q-84 0 -164 -102.5t-125 -241.5t-45 -256zM434 1212q0 80 51.5 135.5t124.5 55.5q49 0 84 -33t35 -92q0 -80 -51 -135.5t-123 -55.5q-49 0 -85 34t-36 91zM854 1212q0 80 51 135.5t125 55.5q49 0 84 -33 t35 -92q0 -80 -52 -135.5t-124 -55.5q-47 0 -83 34t-36 91z" />
<glyph unicode="&#xe5;" horiz-adv-x="1136" d="M53 317q0 262 177.5 454t377.5 192q84 0 128 -34t75 -98l39 105l274 27l-110 -330l-125 -420q-20 -68 -21 -98q0 -43 40 -55.5t145 -6.5v-22q-129 -47 -246 -47q-90 0 -134 31.5t-42 109.5q0 18 2 31l-4 2q-133 -174 -297 -174q-121 0 -200 90t-79 243zM330 301 q0 -205 139 -205q82 0 156 115l157 534q-4 63 -37.5 109.5t-80.5 46.5q-84 0 -164 -102.5t-125 -241.5t-45 -256zM555 1270q0 111 88 184.5t211 73.5q90 0 152.5 -48t62.5 -134q0 -111 -88 -185t-211 -74q-90 0 -152.5 48.5t-62.5 134.5zM696 1229q0 -107 78 -107 q68 0 111 88t43 176q0 106 -78 107q-68 0 -111 -88t-43 -176z" />
<glyph unicode="&#xe6;" horiz-adv-x="1536" d="M37 197q0 143 159.5 229t491.5 88q12 66 12 156q0 125 -51 189.5t-129 64.5q-100 0 -149 -68q66 -27 65 -106q0 -68 -38 -105t-101 -37q-59 0 -95 36t-36 91q0 94 101.5 161t269.5 67q244 0 311 -142h6q162 142 381 142q147 0 224 -59.5t77 -155.5q0 -133 -163 -213 t-478 -66q-8 -47 -8 -104q0 -145 53 -214t176 -69q84 0 169 48t145 132l24 -22q-166 -256 -448 -256q-137 0 -227.5 74.5t-106.5 211.5h-6q-57 -131 -156.5 -208.5t-216.5 -77.5q-119 0 -187.5 58t-68.5 155zM283 248q0 -68 37 -106t98 -38q100 0 172 99.5t94 275.5 q-401 -6 -401 -231zM901 504q125 -2 211 25.5t127 76.5t57.5 97.5t16.5 105.5q0 115 -94.5 115t-187.5 -127t-130 -293z" />
<glyph unicode="&#xe7;" horiz-adv-x="956" d="M53 371q0 242 164 417t406 175q150 0 234.5 -59.5t84.5 -160.5q0 -57 -40 -102t-101 -45q-66 0 -104 35t-38 96q0 41 28 84t75 63q-43 49 -115 50q-82 0 -157.5 -88t-119.5 -216t-44 -253q0 -285 239 -285q166 0 289 190l29 -18q-137 -248 -387 -268l-148 -115l2 -8 q225 -25 225 -168q0 -88 -82.5 -142.5t-195.5 -54.5q-119 0 -207 53l19 31q82 -47 157 -47q61 0 97 32t36 79t-45 74.5t-121 27.5q-23 0 -63 -4l-4 20l274 220q-174 2 -280.5 109.5t-106.5 277.5z" />
<glyph unicode="&#xe8;" horiz-adv-x="972" d="M51 360q0 246 177.5 424.5t443.5 178.5q147 0 224 -59.5t77 -155.5q0 -133 -163 -213t-478 -66q-8 -47 -8 -104q0 -145 53 -214t176 -69q84 0 169 48t144 132l25 -22q-166 -256 -455 -256q-170 0 -277.5 101t-107.5 275zM338 504q125 -2 211 25.5t127 76.5t57.5 97.5 t16.5 105.5q0 115 -94.5 115t-187.5 -127t-130 -293zM395 1444q0 39 32 69.5t77 30.5t71.5 -38t59.5 -132l104 -297h-24l-205 197q-61 61 -88 98t-27 72z" />
<glyph unicode="&#xe9;" horiz-adv-x="972" d="M51 360q0 246 177.5 424.5t443.5 178.5q147 0 224 -59.5t77 -155.5q0 -133 -163 -213t-478 -66q-8 -47 -8 -104q0 -145 53 -214t176 -69q84 0 169 48t144 132l25 -22q-166 -256 -455 -256q-170 0 -277.5 101t-107.5 275zM338 504q125 -2 211 25.5t127 76.5t57.5 97.5 t16.5 105.5q0 115 -94.5 115t-187.5 -127t-130 -293zM563 1077l180 314q55 96 85 126.5t77 30.5q43 0 73 -29.5t30 -68.5q0 -41 -45 -86t-207 -166l-162 -121h-31z" />
<glyph unicode="&#xea;" horiz-adv-x="972" d="M51 360q0 246 177.5 424.5t443.5 178.5q147 0 224 -59.5t77 -155.5q0 -133 -163 -213t-478 -66q-8 -47 -8 -104q0 -145 53 -214t176 -69q84 0 169 48t144 132l25 -22q-166 -256 -455 -256q-170 0 -277.5 101t-107.5 275zM338 504q125 -2 211 25.5t127 76.5t57.5 97.5 t16.5 105.5q0 115 -94.5 115t-187.5 -127t-130 -293zM365 1077l403 426h27l166 -426h-33l-211 183l-307 -183h-45z" />
<glyph unicode="&#xeb;" horiz-adv-x="972" d="M51 360q0 246 177.5 424.5t443.5 178.5q147 0 224 -59.5t77 -155.5q0 -133 -163 -213t-478 -66q-8 -47 -8 -104q0 -145 53 -214t176 -69q84 0 169 48t144 132l25 -22q-166 -256 -455 -256q-170 0 -277.5 101t-107.5 275zM338 504q125 -2 211 25.5t127 76.5t57.5 97.5 t16.5 105.5q0 115 -94.5 115t-187.5 -127t-130 -293zM360 1212q0 80 51.5 135.5t125.5 55.5q49 0 83.5 -33t34.5 -92q0 -80 -51 -135.5t-123 -55.5q-49 0 -85 34t-36 91zM780 1212q0 80 51.5 135.5t124.5 55.5q49 0 84 -33t35 -92q0 -80 -52 -135.5t-124 -55.5q-47 0 -83 34 t-36 91z" />
<glyph unicode="&#xec;" horiz-adv-x="651" d="M94 131q0 39 17 94l172 570q16 49 -25 74.5t-137 31.5v25l475 26l-221 -729q-18 -66 -19 -86q0 -49 47 -64t162 -7v-23q-141 -59 -272 -59q-199 0 -199 147zM203 1444q0 39 31.5 69.5t76.5 30.5t72 -38t59 -132l105 -297h-25l-205 197q-61 61 -87.5 98t-26.5 72z" />
<glyph unicode="&#xed;" horiz-adv-x="651" d="M94 131q0 39 17 94l172 570q16 49 -25 74.5t-137 31.5v25l475 26l-221 -729q-18 -66 -19 -86q0 -49 47 -64t162 -7v-23q-141 -59 -272 -59q-199 0 -199 147zM362 1077l181 314q55 96 84.5 126.5t77.5 30.5q43 0 72.5 -29.5t29.5 -68.5q0 -41 -45 -86t-207 -166l-162 -121 h-31z" />
<glyph unicode="&#xee;" horiz-adv-x="651" d="M94 131q0 39 17 94l172 570q16 49 -25 74.5t-137 31.5v25l475 26l-221 -729q-18 -66 -19 -86q0 -49 47 -64t162 -7v-23q-141 -59 -272 -59q-199 0 -199 147zM160 1077l403 426h27l166 -426h-33l-211 183l-307 -183h-45z" />
<glyph unicode="&#xef;" horiz-adv-x="651" d="M94 131q0 39 17 94l172 570q16 49 -25 74.5t-137 31.5v25l475 26l-221 -729q-18 -66 -19 -86q0 -49 47 -64t162 -7v-23q-141 -59 -272 -59q-199 0 -199 147zM162 1212q0 80 51 135.5t125 55.5q49 0 84 -33t35 -92q0 -80 -51 -135.5t-123 -55.5q-49 0 -85 34t-36 91z M582 1212q0 80 51 135.5t125 55.5q49 0 84 -33t35 -92q0 -80 -52.5 -135.5t-124.5 -55.5q-47 0 -82.5 34t-35.5 91z" />
<glyph unicode="&#xf0;" horiz-adv-x="1079" d="M51 387q0 137 63.5 265t199 219.5t311.5 91.5q84 0 129 -37q-23 184 -123 309l-291 -162l-21 37l287 156q-104 121 -303 207l16 28q242 -49 412 -166l207 115l20 -37l-194 -104q272 -209 268 -594q-2 -311 -156.5 -521t-422.5 -210q-184 0 -293 109.5t-109 293.5z M303 219q0 -196 137 -196q74 0 140.5 76.5t107.5 188t64.5 229.5t23.5 210q0 197 -137 197q-98 0 -179 -130t-119 -289t-38 -286z" />
<glyph unicode="&#xf1;" horiz-adv-x="1167" d="M33 0l98 332l125 469q12 51 -11.5 72.5t-115.5 27.5v25l426 26l-59 -194l6 -4q193 205 377 204q98 0 151 -51t53 -145q0 -61 -24 -141l-131 -416q-18 -61 -19 -94q0 -41 39 -52.5t148 -5.5v-22q-141 -47 -246 -47q-201 0 -201 137q0 45 19 100l129 412q23 74 22 115 q0 90 -88 90q-106 0 -244 -125l-180 -713h-274zM436 1079q31 152 84 218.5t137 66.5q47 0 156 -56.5t143 -56.5q47 0 67.5 20.5t53.5 100.5h33q-31 -154 -83 -219.5t-138 -65.5q-47 0 -154.5 55.5t-144.5 55.5q-45 0 -66.5 -21.5t-54.5 -97.5h-33z" />
<glyph unicode="&#xf2;" horiz-adv-x="1075" d="M51 387q0 217 157 396.5t415 179.5q184 0 292.5 -110t108.5 -294q0 -217 -156.5 -396t-414.5 -179q-184 0 -293 109.5t-109 293.5zM301 219q0 -196 137 -196q98 0 179 130t119 288.5t38 285.5q0 197 -137 197q-98 0 -179 -130t-119 -289t-38 -286zM420 1444 q0 39 31.5 69.5t76.5 30.5t72 -38t59 -132l105 -297h-25l-204 197q-61 61 -88 98t-27 72z" />
<glyph unicode="&#xf3;" horiz-adv-x="1075" d="M51 387q0 217 157 396.5t415 179.5q184 0 292.5 -110t108.5 -294q0 -217 -156.5 -396t-414.5 -179q-184 0 -293 109.5t-109 293.5zM301 219q0 -196 137 -196q98 0 179 130t119 288.5t38 285.5q0 197 -137 197q-98 0 -179 -130t-119 -289t-38 -286zM584 1077l180 314 q55 96 85 126.5t77 30.5q43 0 72.5 -29.5t29.5 -68.5q0 -41 -45 -86t-207 -166l-162 -121h-30z" />
<glyph unicode="&#xf4;" horiz-adv-x="1075" d="M51 387q0 217 157 396.5t415 179.5q184 0 292.5 -110t108.5 -294q0 -217 -156.5 -396t-414.5 -179q-184 0 -293 109.5t-109 293.5zM301 219q0 -196 137 -196q98 0 179 130t119 288.5t38 285.5q0 197 -137 197q-98 0 -179 -130t-119 -289t-38 -286zM377 1077l403 426h27 l166 -426h-33l-211 183l-307 -183h-45z" />
<glyph unicode="&#xf5;" horiz-adv-x="1075" d="M51 387q0 217 157 396.5t415 179.5q184 0 292.5 -110t108.5 -294q0 -217 -156.5 -396t-414.5 -179q-184 0 -293 109.5t-109 293.5zM301 219q0 -196 137 -196q98 0 179 130t119 288.5t38 285.5q0 197 -137 197q-98 0 -179 -130t-119 -289t-38 -286zM393 1079 q31 152 84 218.5t137 66.5q49 0 156 -56.5t143 -56.5q47 0 67.5 20.5t53.5 100.5h33q-31 -154 -83 -219.5t-138 -65.5q-47 0 -154.5 55.5t-144.5 55.5q-45 0 -66.5 -21.5t-54.5 -97.5h-33z" />
<glyph unicode="&#xf6;" horiz-adv-x="1075" d="M51 387q0 217 157 396.5t415 179.5q184 0 292.5 -110t108.5 -294q0 -217 -156.5 -396t-414.5 -179q-184 0 -293 109.5t-109 293.5zM301 219q0 -196 137 -196q98 0 179 130t119 288.5t38 285.5q0 197 -137 197q-98 0 -179 -130t-119 -289t-38 -286zM381 1212 q0 80 51 135.5t125 55.5q49 0 84 -33t35 -92q0 -80 -51 -135.5t-123 -55.5q-49 0 -85 34t-36 91zM801 1212q0 80 51 135.5t125 55.5q49 0 84 -33t35 -92q0 -80 -52 -135.5t-124 -55.5q-47 0 -83 34t-36 91z" />
<glyph unicode="&#xf7;" horiz-adv-x="1179" d="M158 647l10 45h958l-10 -45h-958zM442 373q0 49 35 84t86 35q49 0 84 -35t35 -84t-35 -84t-84 -35q-51 0 -86 35t-35 84zM602 967q0 49 35 83.5t86 34.5q49 0 84 -34.5t35 -83.5t-35 -84t-84 -35q-51 0 -86 35t-35 84z" />
<glyph unicode="&#xf8;" horiz-adv-x="1075" d="M51 -55l121 135q-121 111 -121 307q0 217 157 396.5t415 179.5q150 0 256 -78l104 116h41l-121 -137q121 -109 121 -305q0 -217 -156.5 -396t-414.5 -179q-156 0 -258 77l-103 -116h-41zM301 180q12 -157 137 -157q96 0 176 126.5t119 282.5t41 285zM301 227l471 535 q-10 162 -135 162q-96 0 -177 -127t-119 -284t-40 -286z" />
<glyph unicode="&#xf9;" horiz-adv-x="1179" d="M82 180q-1 59 24 139l154 476q16 51 -11.5 75.5t-119.5 30.5v25l442 26l-202 -645q-18 -57 -19 -100q0 -92 100.5 -92t227.5 114l115 396l84 323h276l-225 -741q-18 -59 -19 -92q0 -43 39 -55.5t146 -6.5v-22q-135 -47 -248 -47q-190 0 -191 125q0 37 15 73l-6 6 q-180 -205 -369 -204q-102 0 -157.5 51t-55.5 145zM465 1444q0 39 31.5 69.5t76.5 30.5t72 -38t60 -132l104 -297h-25l-204 197q-61 61 -88 98t-27 72z" />
<glyph unicode="&#xfa;" horiz-adv-x="1179" d="M82 180q-1 59 24 139l154 476q16 51 -11.5 75.5t-119.5 30.5v25l442 26l-202 -645q-18 -57 -19 -100q0 -92 100.5 -92t227.5 114l115 396l84 323h276l-225 -741q-18 -59 -19 -92q0 -43 39 -55.5t146 -6.5v-22q-135 -47 -248 -47q-190 0 -191 125q0 37 15 73l-6 6 q-180 -205 -369 -204q-102 0 -157.5 51t-55.5 145zM629 1077l180 314q55 96 85 126.5t77 30.5q43 0 72.5 -29.5t29.5 -68.5q0 -41 -45 -86t-207 -166l-162 -121h-30z" />
<glyph unicode="&#xfb;" horiz-adv-x="1179" d="M82 180q-1 59 24 139l154 476q16 51 -11.5 75.5t-119.5 30.5v25l442 26l-202 -645q-18 -57 -19 -100q0 -92 100.5 -92t227.5 114l115 396l84 323h276l-225 -741q-18 -59 -19 -92q0 -43 39 -55.5t146 -6.5v-22q-135 -47 -248 -47q-190 0 -191 125q0 37 15 73l-6 6 q-180 -205 -369 -204q-102 0 -157.5 51t-55.5 145zM430 1077l404 426h26l166 -426h-33l-211 183l-307 -183h-45z" />
<glyph unicode="&#xfc;" horiz-adv-x="1179" d="M82 180q-1 59 24 139l154 476q16 51 -11.5 75.5t-119.5 30.5v25l442 26l-202 -645q-18 -57 -19 -100q0 -92 100.5 -92t227.5 114l115 396l84 323h276l-225 -741q-18 -59 -19 -92q0 -43 39 -55.5t146 -6.5v-22q-135 -47 -248 -47q-190 0 -191 125q0 37 15 73l-6 6 q-180 -205 -369 -204q-102 0 -157.5 51t-55.5 145zM430 1212q0 80 51 135.5t125 55.5q49 0 84 -33t35 -92q0 -80 -51 -135.5t-123 -55.5q-49 0 -85 34t-36 91zM850 1212q0 80 51 135.5t125 55.5q49 0 84 -33t35 -92q0 -80 -52 -135.5t-124 -55.5q-47 0 -83 34t-36 91z" />
<glyph unicode="&#xfd;" horiz-adv-x="999" d="M-186 -240q0 66 43 111t106 45q61 0 101 -41t40 -106q0 -78 -55 -119q174 8 303 188l-94 531l-80 411q-12 66 -44 87.5t-122 23.5v24l404 43l82 -456l57 -410h8l88 141q160 244 185 416q-63 18 -100.5 61.5t-37.5 100.5q0 70 40 112t110 42q66 0 105.5 -44t39.5 -110 q0 -84 -55 -196.5t-227 -385.5q-168 -262 -292 -404t-213 -188.5t-194 -46.5q-94 0 -146 46.5t-52 123.5zM481 1077l181 314q55 96 84.5 126.5t76.5 30.5q43 0 73 -29.5t30 -68.5q0 -41 -45 -86t-207 -166l-162 -121h-31z" />
<glyph unicode="&#xfe;" horiz-adv-x="1099" d="M-246 -365q86 2 118 16.5t40 43.5l86 270l145 557l201 793q12 49 -23.5 70.5t-146.5 27.5v25l485 30l-180 -647l6 -4q135 145 293 146q117 0 193 -87.5t76 -240.5q0 -262 -176.5 -455.5t-378.5 -193.5q-141 0 -203 82l-99 -363q-6 -35 30 -50t163 -20v-24h-629v24z M307 145q12 -49 52 -76.5t87 -27.5q84 0 161 102.5t121 247t44 273.5q0 190 -133 190q-37 0 -88 -26.5t-82 -63.5z" />
<glyph unicode="&#xff;" horiz-adv-x="999" d="M-186 -240q0 66 43 111t106 45q61 0 101 -41t40 -106q0 -78 -55 -119q174 8 303 188l-94 531l-80 411q-12 66 -44 87.5t-122 23.5v24l404 43l82 -456l57 -410h8l88 141q160 244 185 416q-63 18 -100.5 61.5t-37.5 100.5q0 70 40 112t110 42q66 0 105.5 -44t39.5 -110 q0 -84 -55 -196.5t-227 -385.5q-168 -262 -292 -404t-213 -188.5t-194 -46.5q-94 0 -146 46.5t-52 123.5zM295 1212q0 80 51 135.5t125 55.5q49 0 84 -33t35 -92q0 -80 -51 -135.5t-123 -55.5q-49 0 -85 34t-36 91zM715 1212q0 80 51 135.5t125 55.5q49 0 84 -33t35 -92 q0 -80 -52 -135.5t-124 -55.5q-47 0 -83 34t-36 91z" />
<glyph unicode="&#x152;" horiz-adv-x="2207" d="M129 592q0 154 64.5 304.5t183.5 268.5q262 262 651 262h1264l-119 -477h-33q-18 98 -33.5 156.5t-41 119t-59.5 90.5t-86 49t-124 19h-225l-162 -610h109q115 0 174 46t176 208h30l-149 -573h-31q-37 184 -61 223q-47 53 -150 55h-110l-185 -690h267q104 0 188 28.5 t159 95t132 141.5t137 200h35l-141 -508h-1172q-315 0 -501.5 156.5t-186.5 435.5zM432 436q0 -193 85 -294t288 -101h108l361 1345h-211q-193 0 -338 -145q-141 -139 -217 -377.5t-76 -427.5z" />
<glyph unicode="&#x153;" horiz-adv-x="1652" d="M51 387q0 137 63.5 265t199 219.5t311.5 91.5q221 0 313 -172q168 172 414 172q147 0 225 -59.5t78 -155.5q0 -133 -164 -213t-479 -66q-8 -47 -8 -104q0 -145 54 -214t177 -69q82 0 167 48t144 132l25 -22q-166 -256 -447 -256q-207 0 -299 151q-147 -152 -372 -151 q-184 0 -293 109.5t-109 293.5zM303 219q0 -196 137 -196q74 0 140.5 76.5t107.5 188t64.5 229.5t23.5 210q0 197 -137 197q-98 0 -179 -130t-119 -289t-38 -286zM1018 504q125 -2 211 25.5t127 76.5t57.5 97.5t16.5 105.5q-1 115 -93 115q-94 0 -188 -127t-131 -293z" />
<glyph unicode="&#x178;" horiz-adv-x="1417" d="M199 1401l6 26h710l-6 -26q-156 -6 -196.5 -38t-20.5 -93l191 -600l364 456q96 121 83 184.5t-144 90.5l6 26h514l-6 -26q-111 -18 -194.5 -79t-202.5 -206l-402 -491l-133 -502q-14 -55 22.5 -72.5t174.5 -21.5l-7 -29h-741l6 29q137 4 184.5 21.5t61.5 72.5l135 502 l-194 626q-25 82 -60 106.5t-151 43.5zM733 1704q0 80 51.5 135t124.5 55q49 0 84 -32.5t35 -92.5q0 -80 -51 -135t-123 -55q-49 0 -85 34t-36 91zM1153 1704q0 80 51 135t125 55q49 0 84 -32.5t35 -92.5q0 -80 -52 -135t-124 -55q-47 0 -83 34t-36 91z" />
<glyph unicode="&#x2c6;" horiz-adv-x="655" d="M221 1077l404 426h26l166 -426h-33l-211 183l-307 -183h-45z" />
<glyph unicode="&#x2dc;" horiz-adv-x="729" d="M231 1079q31 152 84.5 218.5t137.5 66.5q47 0 155.5 -56.5t143.5 -56.5q47 0 67.5 20.5t52.5 100.5h33q-31 -154 -83 -219.5t-138 -65.5q-47 0 -154.5 55.5t-144.5 55.5q-45 0 -66.5 -21.5t-54.5 -97.5h-33z" />
<glyph unicode="&#x2000;" horiz-adv-x="1020" />
<glyph unicode="&#x2001;" horiz-adv-x="2040" />
<glyph unicode="&#x2002;" horiz-adv-x="1020" />
<glyph unicode="&#x2003;" horiz-adv-x="2040" />
<glyph unicode="&#x2004;" horiz-adv-x="680" />
<glyph unicode="&#x2005;" horiz-adv-x="510" />
<glyph unicode="&#x2006;" horiz-adv-x="340" />
<glyph unicode="&#x2007;" horiz-adv-x="340" />
<glyph unicode="&#x2008;" horiz-adv-x="255" />
<glyph unicode="&#x2009;" horiz-adv-x="408" />
<glyph unicode="&#x200a;" horiz-adv-x="113" />
<glyph unicode="&#x2010;" horiz-adv-x="749" d="M117 489l22 84h525l-23 -84h-524z" />
<glyph unicode="&#x2011;" horiz-adv-x="749" d="M117 489l22 84h525l-23 -84h-524z" />
<glyph unicode="&#x2012;" horiz-adv-x="749" d="M117 489l22 84h525l-23 -84h-524z" />
<glyph unicode="&#x2013;" horiz-adv-x="1105" d="M123 516l12 45h881l-12 -45h-881z" />
<glyph unicode="&#x2014;" horiz-adv-x="1617" d="M123 516l12 45h1393l-12 -45h-1393z" />
<glyph unicode="&#x2018;" horiz-adv-x="526" d="M242 1038q0 133 119.5 240.5t359.5 173.5l8 -25q-266 -117 -315 -251l6 -9q63 6 105 -37t42 -110.5t-47 -114.5t-112 -47q-74 0 -120 53.5t-46 126.5z" />
<glyph unicode="&#x2019;" horiz-adv-x="526" d="M147 891q266 119 316 252l-6 8q-63 -6 -105.5 37t-42.5 110.5t47 114.5t113 47q74 0 120 -53t46 -127q0 -133 -119.5 -240.5t-359.5 -173.5z" />
<glyph unicode="&#x201a;" horiz-adv-x="526" d="M-141 -283q266 121 315 252l-6 8q-63 -4 -105.5 38t-42.5 110t47.5 115t112.5 47q74 0 120 -52.5t46 -128.5q0 -133 -119.5 -240t-359.5 -173z" />
<glyph unicode="&#x201c;" horiz-adv-x="952" d="M242 1038q0 133 119.5 240.5t359.5 173.5l8 -25q-266 -117 -315 -251l6 -9q63 6 105 -37t42 -110.5t-47 -114.5t-112 -47q-74 0 -120 53.5t-46 126.5zM668 1038q0 133 119.5 240.5t359.5 173.5l8 -25q-266 -119 -315 -251l8 -9q63 6 104 -37t41 -110.5t-46 -114.5 t-111 -47q-74 0 -121 53.5t-47 126.5z" />
<glyph unicode="&#x201d;" horiz-adv-x="952" d="M147 891q266 119 316 252l-6 8q-63 -6 -105.5 37t-42.5 110.5t47 114.5t113 47q74 0 120 -53t46 -127q0 -133 -119.5 -240.5t-359.5 -173.5zM575 891q264 117 314 252l-6 8q-63 -6 -105.5 37t-42.5 110.5t47 114.5t113 47q74 0 120 -53t46 -127q0 -133 -118.5 -240.5 t-358.5 -173.5z" />
<glyph unicode="&#x201e;" horiz-adv-x="952" d="M-141 -283q266 121 315 252l-6 8q-63 -4 -105.5 38t-42.5 110t47.5 115t112.5 47q74 0 120 -52.5t46 -128.5q0 -133 -119.5 -240t-359.5 -173zM287 -283q264 121 313 252l-6 8q-63 -4 -105.5 38t-42.5 110t47.5 115t112.5 47q74 0 120 -52.5t46 -128.5 q0 -133 -118.5 -240t-358.5 -173z" />
<glyph unicode="&#x2022;" horiz-adv-x="976" d="M256 676q0 117 81 198.5t202 81.5q119 0 199.5 -81.5t80.5 -198.5t-80.5 -198t-199.5 -81q-121 0 -202 81t-81 198z" />
<glyph unicode="&#x2026;" horiz-adv-x="1554" d="M20 125q0 66 48.5 114t118 48t116.5 -46t47 -114q0 -66 -48 -114t-117.5 -48t-117 46t-47.5 114zM535 125q0 66 48 114t117.5 48t116.5 -46t47 -114q0 -66 -48 -114t-117.5 -48t-116.5 46t-47 114zM1049 125q0 66 48 114t120 48q70 0 115.5 -46t45.5 -114q0 -66 -48 -114 t-117.5 -48t-116.5 46t-47 114z" />
<glyph unicode="&#x202f;" horiz-adv-x="408" />
<glyph unicode="&#x2039;" horiz-adv-x="628" d="M72 485q0 16 65 60l477 325l23 -24l-336 -377l129 -395l-31 -19l-288 361q-39 49 -39 69z" />
<glyph unicode="&#x203a;" horiz-adv-x="628" d="M6 80l334 383l-129 399l31 19l293 -363q41 -53 40.5 -69.5t-69.5 -63.5l-477 -330z" />
<glyph unicode="&#x205f;" horiz-adv-x="510" />
<glyph unicode="&#x20ac;" horiz-adv-x="1406" d="M47 555l14 43h187q6 94 35 190h-179l15 43h178q90 248 299 405t477 157q168 0 271.5 -77t103.5 -198q0 -80 -51 -133t-125 -53q-68 0 -112 43t-44 110q0 63 40 111.5t101 65.5q-63 96 -196 96q-121 0 -221.5 -77t-162 -191.5t-95.5 -258.5h436l-14 -43h-431 q-20 -98 -24 -190h409l-12 -43h-397q0 -205 91 -325.5t263 -120.5q211 0 391 223l29 -21q-231 -346 -565 -346q-233 0 -373.5 151.5t-140.5 405.5v33h-197z" />
<glyph unicode="&#x2122;" horiz-adv-x="1325" d="M289 1262l55 176h447l-41 -176h-23q-20 152 -94 151h-10l-105 -389q-4 -16 10.5 -23.5t59.5 -7.5l-6 -22h-281l6 22q78 0 86 31l105 389h-13q-66 0 -172 -151h-24zM721 971l4 18q47 6 67.5 26.5t32.5 71.5l74 269q16 59 -55 61l6 21h205l30 -324h9l192 324h221l-6 -21 q-45 -4 -61.5 -10t-20.5 -23l-98 -360q-4 -16 9 -22.5t56 -8.5l-6 -22h-258l6 22q61 2 70 31l90 334h-14l-232 -387h-55l-43 389h-12l-74 -273q-12 -51 -3 -71.5t50 -26.5l-4 -18h-180z" />
<glyph unicode="&#xe000;" horiz-adv-x="962" d="M0 0v963h963v-963h-963z" />
</font>
</defs>
</svg>
